<svg width="2850" height="1238" viewBox="0 0 2850 1238" fill="none" xmlns="http://www.w3.org/2000/svg">
<rect width="2850" height="1238" fill="#F5F5F5"/>
<g clip-path="url(#clip0_8_176)">
<path d="M0 0H2850V1158C2850 1202.18 2814.18 1238 2770 1238H79.9999C35.8172 1238 0 1202.18 0 1158V0Z" fill="#F7ECDF"/>
<path d="M2530.06 907.842C2571.71 1120.08 2784.89 1259.65 3006.21 1219.58C3009.73 1237.56 2973.91 1055.02 2932.26 842.779C2890.61 630.543 2858.46 466.731 2855.37 451C2634.06 491.07 2488.41 695.605 2530.06 907.842Z" fill="#553F2E"/>
<path d="M2530.06 907.842C2571.71 1120.08 2784.89 1259.65 3006.21 1219.58C3009.73 1237.56 2973.91 1055.02 2932.26 842.779C2890.61 630.543 2858.46 466.731 2855.37 451C2634.06 491.07 2488.41 695.605 2530.06 907.842Z" fill="#553F2E"/>
<path d="M2642.15 886.938C2671.56 1036.78 2824.57 1134.86 2983.92 1106.01C2986.41 1118.7 2961.12 989.827 2931.71 839.988C2902.31 690.149 2879.61 574.498 2877.43 563.392C2718.08 592.242 2612.74 737.099 2642.15 886.938Z" fill="#F7ECDF"/>
<path d="M2078.16 842.479C1899.7 973.867 1866.1 1219.56 2003.1 1391.24C1987.99 1402.37 2141.48 1289.37 2319.94 1157.98C2498.4 1026.59 2636.14 925.184 2649.37 915.445C2512.36 743.76 2256.62 711.092 2078.16 842.479Z" fill="#553F2E"/>
<path d="M2078.16 842.479C1899.7 973.867 1866.1 1219.56 2003.1 1391.24C1987.99 1402.37 2141.48 1289.37 2319.94 1157.98C2498.4 1026.59 2636.14 925.184 2649.37 915.445C2512.36 743.76 2256.62 711.092 2078.16 842.479Z" fill="#553F2E"/>
<path d="M2148.12 929.157C2022.12 1021.92 1999.95 1197.32 2098.6 1320.93C2087.93 1328.79 2196.29 1249.01 2322.28 1156.25C2448.28 1063.49 2545.52 991.898 2554.86 985.022C2456.22 861.409 2274.11 836.397 2148.12 929.157Z" fill="#F7ECDF"/>
<path d="M2815.51 880.792C2859 772.853 2988.69 721.374 3105.18 765.81C3108.86 756.667 3071.45 849.502 3027.95 957.442C2984.46 1065.38 2950.88 1148.69 2947.66 1156.69C2831.17 1112.26 2772.01 988.731 2815.51 880.792Z" fill="#F7ECDF"/>
<path d="M0 0H2850V182C2850 248.274 2796.27 302 2730 302H120C53.7258 302 0 248.274 0 182V0Z" fill="#B3CC1F"/>
<path d="M2139.08 1133.3C2138.47 1131.34 2137.51 1130.95 2135.69 1130.95H2134V1116.82H2144.52C2149.6 1116.82 2152.02 1118.52 2153.23 1123.62L2162.3 1160.64C2163.14 1164.17 2163.5 1167.7 2163.5 1167.7H2163.75C2163.75 1167.7 2164.23 1164.17 2165.2 1160.64L2176.56 1117.08H2190.11L2201.59 1160.64C2202.56 1164.17 2202.93 1167.7 2202.93 1167.7H2203.17C2203.17 1167.7 2203.53 1164.17 2204.38 1160.64L2213.32 1123.62C2214.53 1118.52 2216.95 1116.82 2222.03 1116.82H2232.55V1130.95H2230.86C2229.04 1130.95 2228.2 1131.34 2227.47 1133.3L2212.72 1183.53H2195.43L2184.9 1145.47C2183.94 1141.93 2183.45 1138.27 2183.45 1138.27H2183.21C2183.21 1138.27 2182.61 1141.93 2181.64 1145.47L2171.24 1183.53H2153.83L2139.08 1133.3Z" fill="#553F2E"/>
<path d="M2244.27 1133.82C2244.27 1131.86 2243.3 1130.95 2241.61 1130.95H2236.77V1116.82H2251.4C2257.08 1116.82 2259.5 1119.56 2259.5 1125.71V1166.65C2259.5 1168.48 2260.47 1169.53 2262.16 1169.53H2267V1183.53H2252.37C2246.68 1183.53 2244.27 1180.91 2244.27 1174.63V1133.82Z" fill="#553F2E"/>
<path d="M2279.93 1130.03H2272.31V1116.82H2279.93V1114.86C2279.93 1093.01 2296.5 1090.13 2305.08 1090.13C2308.23 1090.13 2310.28 1090.53 2310.28 1090.53V1104.65C2310.28 1104.65 2308.95 1104.39 2307.14 1104.39C2302.79 1104.39 2295.29 1105.57 2295.29 1115.25V1116.82H2308.47V1130.03H2295.29V1183.53H2279.93V1130.03Z" fill="#553F2E"/>
<path d="M2326.48 1197C2330.71 1197 2334.46 1194.25 2336.64 1188.5L2338.69 1183.4L2318.14 1133.3C2317.41 1131.34 2316.56 1130.95 2314.87 1130.95H2313.06V1116.82H2323.21C2327.57 1116.82 2329.74 1118.52 2331.32 1123.1L2343.41 1156.45C2344.62 1159.85 2345.58 1165.35 2345.58 1165.35H2345.83C2345.83 1165.35 2346.79 1159.86 2347.88 1156.45L2358.4 1123.1C2359.85 1118.52 2362.39 1116.82 2366.63 1116.82H2377.02V1130.95H2375.21C2373.4 1130.95 2372.43 1131.34 2371.7 1133.3L2349.58 1193.6C2345.22 1205.64 2336.52 1211 2327.33 1211C2317.65 1211 2311.73 1204.2 2311.73 1204.2L2317.65 1192.43C2317.65 1192.43 2321.4 1197 2326.48 1197Z" fill="#553F2E"/>
<path d="M2234.53 1090.22L2249.55 1106.46L2264.57 1090.22C2260.72 1086.05 2255.42 1083.48 2249.55 1083.48C2243.68 1083.48 2238.37 1086.05 2234.53 1090.22Z" fill="#553F2E"/>
<path d="M2204.5 1057.73L2219.51 1073.96C2227.19 1065.65 2237.82 1060.5 2249.55 1060.5C2261.28 1060.5 2271.9 1065.65 2279.59 1073.96L2294.6 1057.73C2283.06 1045.25 2267.13 1037.52 2249.55 1037.52C2231.98 1037.52 2216.04 1045.25 2204.5 1057.73Z" fill="#553F2E"/>
<path d="M2174.47 1025.25L2189.46 1041.46C2204.84 1024.83 2226.09 1014.54 2249.55 1014.54C2273.01 1014.54 2294.26 1024.83 2309.63 1041.46L2324.63 1025.25C2305.39 1004.44 2278.84 991.554 2249.55 991.554C2220.26 991.554 2193.71 1004.44 2174.47 1025.25Z" fill="#553F2E"/>
<path d="M2249.55 969.059C2282.39 969.059 2312.33 982.495 2334.93 1004.56C2335.93 1000.49 2336.48 996.232 2336.48 991.827C2336.48 964.308 2315.87 942 2290.43 942C2272.64 942 2257.22 952.91 2249.55 968.874C2241.87 952.91 2226.46 942 2208.67 942C2183.23 942 2162.61 964.308 2162.61 991.827C2162.61 996.232 2163.17 1000.49 2164.16 1004.56C2186.77 982.495 2216.71 969.059 2249.55 969.059Z" fill="#B3CC1F"/>
<path d="M2390.92 1133.82C2390.92 1131.86 2389.96 1130.95 2388.26 1130.95H2383.43V1116.82H2397.57C2403.01 1116.82 2405.67 1119.56 2405.67 1124.27V1126.23C2405.67 1127.67 2405.55 1129.11 2405.55 1129.11H2405.8C2408.7 1122.57 2416.07 1115.25 2425.75 1115.25C2435.06 1115.25 2441.1 1119.96 2443.77 1128.98H2444.01C2447.27 1121.79 2455.25 1115.25 2465.05 1115.25C2477.87 1115.25 2485.24 1123.09 2485.24 1140.62V1166.65C2485.24 1168.48 2486.21 1169.53 2487.9 1169.53H2492.62V1183.53H2478.11C2472.3 1183.53 2469.88 1180.91 2469.88 1174.63V1143.76C2469.88 1136.18 2468.55 1130.42 2461.42 1130.42C2453.8 1130.42 2448.36 1137.35 2446.67 1145.72C2445.94 1148.34 2445.7 1151.09 2445.7 1154.23V1183.53H2430.34V1143.76C2430.34 1136.57 2429.38 1130.42 2422 1130.42C2414.26 1130.42 2409.06 1137.35 2407.13 1145.86C2406.52 1148.47 2406.16 1151.22 2406.16 1154.23V1183.53H2390.92V1133.82Z" fill="#B3CC1F"/>
<path d="M2527.67 1115.25C2545.33 1115.25 2555 1129.25 2555 1146.9C2555 1148.87 2554.64 1153.05 2554.64 1153.05H2512.07C2513.28 1164.82 2521.26 1170.97 2530.58 1170.97C2540.49 1170.97 2547.87 1163.52 2547.87 1163.52L2554.27 1175.03C2554.27 1175.03 2544.84 1185.1 2529.49 1185.1C2509.05 1185.1 2496.35 1169.14 2496.35 1150.18C2496.36 1129.64 2509.17 1115.25 2527.67 1115.25ZM2539.28 1141.54C2539.04 1133.56 2533.96 1128.07 2527.67 1128.07C2519.81 1128.07 2514.25 1133.17 2512.56 1141.54H2539.28Z" fill="#B3CC1F"/>
<path d="M144.92 1100V1072H149.68V1083.64H163.2V1072H167.96V1100H163.2V1087.88H149.68V1100H144.92ZM183.387 1100.48C181.414 1100.48 179.694 1100.09 178.227 1099.32C176.761 1098.52 175.627 1097.43 174.827 1096.04C174.027 1094.65 173.627 1093.09 173.627 1091.36V1079.6H178.227V1091.32C178.227 1092.36 178.454 1093.28 178.907 1094.08C179.387 1094.85 180.014 1095.47 180.787 1095.92C181.587 1096.35 182.454 1096.56 183.387 1096.56C184.321 1096.56 185.174 1096.35 185.947 1095.92C186.747 1095.47 187.374 1094.85 187.827 1094.08C188.307 1093.28 188.547 1092.36 188.547 1091.32V1079.6H193.147V1091.36C193.147 1093.09 192.747 1094.65 191.947 1096.04C191.147 1097.43 190.014 1098.52 188.547 1099.32C187.081 1100.09 185.361 1100.48 183.387 1100.48ZM198.666 1100V1087.8C198.666 1086.23 199.04 1084.79 199.786 1083.48C200.533 1082.15 201.613 1081.09 203.026 1080.32C204.44 1079.52 206.133 1079.12 208.106 1079.12C209.066 1079.12 209.986 1079.24 210.866 1079.48C211.746 1079.72 212.56 1080.11 213.306 1080.64C214.08 1081.15 214.733 1081.79 215.266 1082.56H215.306C215.84 1081.79 216.48 1081.15 217.226 1080.64C218 1080.11 218.826 1079.72 219.706 1079.48C220.613 1079.24 221.546 1079.12 222.506 1079.12C224.506 1079.12 226.2 1079.52 227.586 1080.32C229 1081.09 230.08 1082.15 230.826 1083.48C231.573 1084.79 231.946 1086.23 231.946 1087.8V1100H227.386V1087.8C227.386 1086.92 227.16 1086.12 226.706 1085.4C226.28 1084.68 225.706 1084.11 224.986 1083.68C224.266 1083.25 223.44 1083.04 222.506 1083.04C221.6 1083.04 220.773 1083.25 220.026 1083.68C219.28 1084.11 218.68 1084.68 218.226 1085.4C217.8 1086.12 217.586 1086.92 217.586 1087.8V1100H213.026V1087.8C213.026 1086.92 212.8 1086.12 212.346 1085.4C211.893 1084.68 211.293 1084.11 210.546 1083.68C209.826 1083.25 209.013 1083.04 208.106 1083.04C207.2 1083.04 206.373 1083.25 205.626 1083.68C204.906 1084.11 204.32 1084.68 203.866 1085.4C203.44 1086.12 203.226 1086.92 203.226 1087.8V1100H198.666ZM237.455 1100V1087.8C237.455 1086.23 237.829 1084.79 238.575 1083.48C239.322 1082.15 240.402 1081.09 241.815 1080.32C243.229 1079.52 244.922 1079.12 246.895 1079.12C247.855 1079.12 248.775 1079.24 249.655 1079.48C250.535 1079.72 251.349 1080.11 252.095 1080.64C252.869 1081.15 253.522 1081.79 254.055 1082.56H254.095C254.629 1081.79 255.269 1081.15 256.015 1080.64C256.789 1080.11 257.615 1079.72 258.495 1079.48C259.402 1079.24 260.335 1079.12 261.295 1079.12C263.295 1079.12 264.989 1079.52 266.375 1080.32C267.789 1081.09 268.869 1082.15 269.615 1083.48C270.362 1084.79 270.735 1086.23 270.735 1087.8V1100H266.175V1087.8C266.175 1086.92 265.949 1086.12 265.495 1085.4C265.069 1084.68 264.495 1084.11 263.775 1083.68C263.055 1083.25 262.229 1083.04 261.295 1083.04C260.389 1083.04 259.562 1083.25 258.815 1083.68C258.069 1084.11 257.469 1084.68 257.015 1085.4C256.589 1086.12 256.375 1086.92 256.375 1087.8V1100H251.815V1087.8C251.815 1086.92 251.589 1086.12 251.135 1085.4C250.682 1084.68 250.082 1084.11 249.335 1083.68C248.615 1083.25 247.802 1083.04 246.895 1083.04C245.989 1083.04 245.162 1083.25 244.415 1083.68C243.695 1084.11 243.109 1084.68 242.655 1085.4C242.229 1086.12 242.015 1086.92 242.015 1087.8V1100H237.455ZM276.244 1100V1079.6H280.844V1100H276.244ZM278.524 1076.76C277.724 1076.76 277.031 1076.47 276.444 1075.88C275.858 1075.29 275.564 1074.6 275.564 1073.8C275.564 1073 275.858 1072.31 276.444 1071.72C277.031 1071.13 277.724 1070.84 278.524 1070.84C279.351 1070.84 280.044 1071.13 280.604 1071.72C281.191 1072.31 281.484 1073 281.484 1073.8C281.484 1074.6 281.191 1075.29 280.604 1075.88C280.044 1076.47 279.351 1076.76 278.524 1076.76ZM286.362 1100V1088.24C286.362 1086.48 286.762 1084.92 287.562 1083.56C288.362 1082.17 289.495 1081.09 290.962 1080.32C292.428 1079.52 294.148 1079.12 296.122 1079.12C298.095 1079.12 299.802 1079.52 301.242 1080.32C302.708 1081.09 303.842 1082.17 304.642 1083.56C305.442 1084.92 305.842 1086.48 305.842 1088.24V1100H301.282V1088.28C301.282 1087.24 301.042 1086.33 300.562 1085.56C300.082 1084.76 299.442 1084.15 298.642 1083.72C297.868 1083.27 297.015 1083.04 296.082 1083.04C295.175 1083.04 294.322 1083.27 293.522 1083.72C292.748 1084.15 292.122 1084.76 291.642 1085.56C291.188 1086.33 290.962 1087.24 290.962 1088.28V1100H286.362ZM314.442 1108.12V1104.2H324.682C325.375 1104.2 325.908 1103.99 326.282 1103.56C326.682 1103.13 326.882 1102.6 326.882 1101.96V1096.68H326.842C326.255 1097.4 325.628 1098.03 324.962 1098.56C324.295 1099.07 323.535 1099.47 322.682 1099.76C321.855 1100.03 320.935 1100.16 319.922 1100.16C318.055 1100.16 316.388 1099.72 314.922 1098.84C313.455 1097.96 312.295 1096.73 311.442 1095.16C310.615 1093.56 310.202 1091.73 310.202 1089.68C310.202 1087.68 310.615 1085.89 311.442 1084.32C312.295 1082.72 313.508 1081.45 315.082 1080.52C316.655 1079.59 318.575 1079.12 320.842 1079.12C323.002 1079.12 324.868 1079.57 326.442 1080.48C328.042 1081.39 329.282 1082.67 330.162 1084.32C331.042 1085.95 331.482 1087.85 331.482 1090.04V1102.16C331.482 1104 330.948 1105.45 329.882 1106.52C328.815 1107.59 327.362 1108.12 325.522 1108.12H314.442ZM320.802 1096.24C322.028 1096.24 323.082 1095.96 323.962 1095.4C324.868 1094.81 325.562 1094.04 326.042 1093.08C326.548 1092.09 326.802 1091 326.802 1089.8C326.802 1088.52 326.562 1087.37 326.082 1086.36C325.602 1085.35 324.908 1084.55 324.002 1083.96C323.122 1083.35 322.055 1083.04 320.802 1083.04C319.575 1083.04 318.508 1083.35 317.602 1083.96C316.722 1084.55 316.042 1085.35 315.562 1086.36C315.082 1087.35 314.842 1088.47 314.842 1089.72C314.842 1090.92 315.082 1092.01 315.562 1093C316.042 1093.99 316.722 1094.77 317.602 1095.36C318.508 1095.95 319.575 1096.24 320.802 1096.24ZM347.27 1100.48C345.19 1100.48 343.35 1100.04 341.75 1099.16C340.15 1098.28 338.897 1097.03 337.99 1095.4C337.11 1093.75 336.67 1091.8 336.67 1089.56V1070.8H341.27V1082.68H341.31C341.737 1081.96 342.297 1081.33 342.99 1080.8C343.684 1080.27 344.457 1079.85 345.31 1079.56C346.164 1079.27 347.07 1079.12 348.03 1079.12C349.977 1079.12 351.684 1079.56 353.15 1080.44C354.644 1081.29 355.804 1082.49 356.63 1084.04C357.484 1085.59 357.91 1087.4 357.91 1089.48C357.91 1091.11 357.657 1092.6 357.15 1093.96C356.67 1095.29 355.964 1096.45 355.03 1097.44C354.124 1098.43 353.017 1099.19 351.71 1099.72C350.404 1100.23 348.924 1100.48 347.27 1100.48ZM347.27 1096.56C348.444 1096.56 349.484 1096.28 350.39 1095.72C351.297 1095.13 352.004 1094.33 352.51 1093.32C353.017 1092.31 353.27 1091.13 353.27 1089.8C353.27 1088.49 353.017 1087.33 352.51 1086.32C352.004 1085.31 351.297 1084.51 350.39 1083.92C349.51 1083.33 348.484 1083.04 347.31 1083.04C346.137 1083.04 345.097 1083.33 344.19 1083.92C343.284 1084.48 342.577 1085.27 342.07 1086.28C341.564 1087.29 341.31 1088.47 341.31 1089.8C341.31 1091.13 341.564 1092.31 342.07 1093.32C342.577 1094.33 343.284 1095.13 344.19 1095.72C345.097 1096.28 346.124 1096.56 347.27 1096.56ZM362.26 1100V1079.6H366.86V1100H362.26ZM364.54 1076.76C363.74 1076.76 363.047 1076.47 362.46 1075.88C361.873 1075.29 361.58 1074.6 361.58 1073.8C361.58 1073 361.873 1072.31 362.46 1071.72C363.047 1071.13 363.74 1070.84 364.54 1070.84C365.367 1070.84 366.06 1071.13 366.62 1071.72C367.207 1072.31 367.5 1073 367.5 1073.8C367.5 1074.6 367.207 1075.29 366.62 1075.88C366.06 1076.47 365.367 1076.76 364.54 1076.76ZM372.217 1100V1085.4C372.217 1083.59 372.724 1082.17 373.737 1081.16C374.777 1080.12 376.204 1079.6 378.017 1079.6H382.937V1083.52H378.857C378.217 1083.52 377.711 1083.71 377.337 1084.08C376.991 1084.45 376.817 1084.96 376.817 1085.6V1100H372.217ZM395.607 1100.48C393.981 1100.48 392.501 1100.23 391.167 1099.72C389.861 1099.19 388.741 1098.43 387.807 1097.44C386.901 1096.45 386.194 1095.29 385.687 1093.96C385.207 1092.6 384.967 1091.11 384.967 1089.48C384.967 1087.4 385.381 1085.59 386.207 1084.04C387.061 1082.49 388.234 1081.29 389.727 1080.44C391.221 1079.56 392.927 1079.12 394.847 1079.12C395.807 1079.12 396.714 1079.27 397.567 1079.56C398.421 1079.85 399.194 1080.27 399.887 1080.8C400.581 1081.33 401.141 1081.96 401.567 1082.68H401.607V1070.8H406.207V1089.56C406.207 1091.8 405.754 1093.75 404.847 1095.4C403.967 1097.03 402.727 1098.28 401.127 1099.16C399.554 1100.04 397.714 1100.48 395.607 1100.48ZM395.607 1096.56C396.781 1096.56 397.807 1096.28 398.687 1095.72C399.594 1095.13 400.301 1094.33 400.807 1093.32C401.314 1092.31 401.567 1091.13 401.567 1089.8C401.567 1088.47 401.314 1087.29 400.807 1086.28C400.301 1085.27 399.594 1084.48 398.687 1083.92C397.807 1083.33 396.767 1083.04 395.567 1083.04C394.421 1083.04 393.394 1083.33 392.487 1083.92C391.581 1084.51 390.874 1085.31 390.367 1086.32C389.861 1087.33 389.607 1088.49 389.607 1089.8C389.607 1091.13 389.861 1092.31 390.367 1093.32C390.874 1094.33 391.581 1095.13 392.487 1095.72C393.421 1096.28 394.461 1096.56 395.607 1096.56ZM418.212 1100L427.532 1074.88C427.985 1073.73 428.639 1072.89 429.492 1072.36C430.345 1071.8 431.319 1071.52 432.412 1071.52C433.532 1071.52 434.519 1071.79 435.372 1072.32C436.252 1072.85 436.905 1073.69 437.332 1074.84L446.692 1100H441.452L439.292 1093.8H425.452L423.212 1100H418.212ZM426.892 1089.56H437.852L433.372 1076.48C433.265 1076.21 433.132 1076.01 432.972 1075.88C432.839 1075.75 432.665 1075.68 432.452 1075.68C432.239 1075.68 432.065 1075.76 431.932 1075.92C431.799 1076.05 431.692 1076.24 431.612 1076.48L426.892 1089.56ZM458.247 1100.48C457.18 1100.48 456.22 1100.19 455.367 1099.6C454.54 1099.01 453.94 1098.23 453.567 1097.24L447.327 1079.6H452.327L457.647 1095.44C457.727 1095.63 457.82 1095.76 457.927 1095.84C458.033 1095.92 458.153 1095.96 458.287 1095.96C458.42 1095.96 458.54 1095.92 458.647 1095.84C458.78 1095.76 458.873 1095.63 458.927 1095.44L464.287 1079.6H469.207L462.927 1097.24C462.58 1098.23 461.98 1099.01 461.127 1099.6C460.273 1100.19 459.313 1100.48 458.247 1100.48ZM482.111 1100C479.818 1100 477.805 1099.57 476.071 1098.72C474.365 1097.84 473.031 1096.64 472.071 1095.12C471.111 1093.57 470.631 1091.8 470.631 1089.8C470.631 1087.69 471.058 1085.84 471.911 1084.24C472.765 1082.64 473.938 1081.39 475.431 1080.48C476.925 1079.57 478.645 1079.12 480.591 1079.12C482.778 1079.12 484.578 1079.59 485.991 1080.52C487.405 1081.45 488.445 1082.71 489.111 1084.28C489.805 1085.85 490.151 1087.61 490.151 1089.56C490.151 1089.83 490.138 1090.13 490.111 1090.48C490.085 1090.83 490.045 1091.09 489.991 1091.28H475.511C475.671 1092.35 476.058 1093.24 476.671 1093.96C477.285 1094.65 478.058 1095.19 478.991 1095.56C479.925 1095.91 480.965 1096.08 482.111 1096.08H487.591V1100H482.111ZM475.471 1088.16H485.551C485.525 1087.65 485.445 1087.15 485.311 1086.64C485.205 1086.13 485.018 1085.65 484.751 1085.2C484.511 1084.75 484.191 1084.36 483.791 1084.04C483.418 1083.69 482.965 1083.43 482.431 1083.24C481.898 1083.03 481.285 1082.92 480.591 1082.92C479.791 1082.92 479.085 1083.08 478.471 1083.4C477.858 1083.69 477.338 1084.09 476.911 1084.6C476.485 1085.08 476.151 1085.64 475.911 1086.28C475.698 1086.89 475.551 1087.52 475.471 1088.16ZM494.448 1100V1088.24C494.448 1086.48 494.848 1084.92 495.648 1083.56C496.448 1082.17 497.581 1081.09 499.048 1080.32C500.514 1079.52 502.234 1079.12 504.208 1079.12C506.181 1079.12 507.888 1079.52 509.328 1080.32C510.794 1081.09 511.928 1082.17 512.728 1083.56C513.528 1084.92 513.928 1086.48 513.928 1088.24V1100H509.368V1088.28C509.368 1087.24 509.128 1086.33 508.648 1085.56C508.168 1084.76 507.528 1084.15 506.728 1083.72C505.954 1083.27 505.101 1083.04 504.168 1083.04C503.261 1083.04 502.408 1083.27 501.608 1083.72C500.834 1084.15 500.208 1084.76 499.728 1085.56C499.274 1086.33 499.048 1087.24 499.048 1088.28V1100H494.448ZM529.208 1100.48C527.234 1100.48 525.514 1100.09 524.048 1099.32C522.581 1098.52 521.448 1097.43 520.648 1096.04C519.848 1094.65 519.448 1093.09 519.448 1091.36V1079.6H524.048V1091.32C524.048 1092.36 524.274 1093.28 524.728 1094.08C525.208 1094.85 525.834 1095.47 526.608 1095.92C527.408 1096.35 528.274 1096.56 529.208 1096.56C530.141 1096.56 530.994 1096.35 531.768 1095.92C532.568 1095.47 533.194 1094.85 533.648 1094.08C534.128 1093.28 534.368 1092.36 534.368 1091.32V1079.6H538.968V1091.36C538.968 1093.09 538.568 1094.65 537.768 1096.04C536.968 1097.43 535.834 1098.52 534.368 1099.32C532.901 1100.09 531.181 1100.48 529.208 1100.48ZM554.807 1100C552.513 1100 550.5 1099.57 548.767 1098.72C547.06 1097.84 545.727 1096.64 544.767 1095.12C543.807 1093.57 543.327 1091.8 543.327 1089.8C543.327 1087.69 543.753 1085.84 544.607 1084.24C545.46 1082.64 546.633 1081.39 548.127 1080.48C549.62 1079.57 551.34 1079.12 553.287 1079.12C555.473 1079.12 557.273 1079.59 558.687 1080.52C560.1 1081.45 561.14 1082.71 561.807 1084.28C562.5 1085.85 562.847 1087.61 562.847 1089.56C562.847 1089.83 562.833 1090.13 562.807 1090.48C562.78 1090.83 562.74 1091.09 562.687 1091.28H548.207C548.367 1092.35 548.753 1093.24 549.367 1093.96C549.98 1094.65 550.753 1095.19 551.687 1095.56C552.62 1095.91 553.66 1096.08 554.807 1096.08H560.287V1100H554.807ZM548.167 1088.16H558.247C558.22 1087.65 558.14 1087.15 558.007 1086.64C557.9 1086.13 557.713 1085.65 557.447 1085.2C557.207 1084.75 556.887 1084.36 556.487 1084.04C556.113 1083.69 555.66 1083.43 555.127 1083.24C554.593 1083.03 553.98 1082.92 553.287 1082.92C552.487 1082.92 551.78 1083.08 551.167 1083.4C550.553 1083.69 550.033 1084.09 549.607 1084.6C549.18 1085.08 548.847 1085.64 548.607 1086.28C548.393 1086.89 548.247 1087.52 548.167 1088.16ZM566.103 1106.12L568.023 1100.2C567.329 1099.96 566.809 1099.56 566.463 1099C566.116 1098.41 565.943 1097.81 565.943 1097.2C565.943 1096.32 566.249 1095.59 566.863 1095C567.503 1094.39 568.263 1094.08 569.143 1094.08C570.103 1094.08 570.863 1094.41 571.423 1095.08C572.009 1095.72 572.303 1096.49 572.303 1097.4C572.303 1098.01 572.249 1098.59 572.143 1099.12C572.036 1099.63 571.863 1100.21 571.623 1100.88L569.943 1106.12H566.103ZM600.021 1100C597.834 1100 595.861 1099.64 594.101 1098.92C592.368 1098.17 590.861 1097.16 589.581 1095.88C588.328 1094.6 587.354 1093.12 586.661 1091.44C585.994 1089.73 585.661 1087.92 585.661 1086C585.661 1084.08 585.994 1082.28 586.661 1080.6C587.354 1078.89 588.328 1077.4 589.581 1076.12C590.861 1074.84 592.368 1073.84 594.101 1073.12C595.861 1072.37 597.834 1072 600.021 1072H603.981V1076.2H600.141C598.728 1076.2 597.434 1076.45 596.261 1076.96C595.088 1077.47 594.061 1078.16 593.181 1079.04C592.328 1079.92 591.661 1080.96 591.181 1082.16C590.701 1083.33 590.461 1084.61 590.461 1086C590.461 1087.39 590.701 1088.68 591.181 1089.88C591.661 1091.08 592.328 1092.12 593.181 1093C594.061 1093.85 595.088 1094.53 596.261 1095.04C597.434 1095.52 598.728 1095.76 600.141 1095.76H603.981V1100H600.021ZM608.276 1100V1079.6H612.876V1100H608.276ZM610.556 1076.76C609.756 1076.76 609.062 1076.47 608.476 1075.88C607.889 1075.29 607.596 1074.6 607.596 1073.8C607.596 1073 607.889 1072.31 608.476 1071.72C609.062 1071.13 609.756 1070.84 610.556 1070.84C611.382 1070.84 612.076 1071.13 612.636 1071.72C613.222 1072.31 613.516 1073 613.516 1073.8C613.516 1074.6 613.222 1075.29 612.636 1075.88C612.076 1076.47 611.382 1076.76 610.556 1076.76ZM625.433 1100C623.619 1100 622.193 1099.48 621.153 1098.44C620.139 1097.4 619.633 1095.99 619.633 1094.2V1074.48H624.193V1094C624.193 1094.61 624.379 1095.12 624.753 1095.52C625.126 1095.89 625.619 1096.08 626.233 1096.08H630.513V1100H625.433ZM616.113 1083.52V1079.6H630.553V1083.52H616.113ZM642.397 1108.12V1100.28C640.851 1099.99 639.517 1099.44 638.397 1098.64C637.277 1097.81 636.411 1096.77 635.797 1095.52C635.184 1094.27 634.877 1092.88 634.877 1091.36V1079.6H639.477V1091.32C639.477 1092.36 639.704 1093.28 640.157 1094.08C640.637 1094.85 641.264 1095.47 642.037 1095.92C642.837 1096.35 643.704 1096.56 644.637 1096.56C645.571 1096.56 646.424 1096.35 647.197 1095.92C647.997 1095.47 648.624 1094.85 649.077 1094.08C649.557 1093.28 649.797 1092.36 649.797 1091.32V1079.6H654.397V1091.36C654.397 1092.88 654.091 1094.25 653.477 1095.48C652.864 1096.71 651.997 1097.75 650.877 1098.6C649.784 1099.43 648.477 1099.97 646.957 1100.24V1108.12H642.397ZM680.222 1100.48C678.116 1100.48 676.249 1100.01 674.622 1099.08C672.996 1098.12 671.702 1096.84 670.742 1095.24C669.809 1093.61 669.342 1091.8 669.342 1089.8C669.342 1087.8 669.809 1086 670.742 1084.4C671.702 1082.77 672.996 1081.49 674.622 1080.56C676.249 1079.6 678.116 1079.12 680.222 1079.12C682.302 1079.12 684.156 1079.6 685.782 1080.56C687.409 1081.49 688.689 1082.76 689.622 1084.36C690.582 1085.96 691.062 1087.77 691.062 1089.8C691.062 1091.8 690.582 1093.61 689.622 1095.24C688.689 1096.84 687.409 1098.12 685.782 1099.08C684.156 1100.01 682.302 1100.48 680.222 1100.48ZM680.222 1096.56C681.476 1096.56 682.569 1096.27 683.502 1095.68C684.436 1095.07 685.156 1094.25 685.662 1093.24C686.169 1092.23 686.422 1091.08 686.422 1089.8C686.422 1088.55 686.169 1087.41 685.662 1086.4C685.156 1085.36 684.436 1084.55 683.502 1083.96C682.569 1083.35 681.476 1083.04 680.222 1083.04C678.942 1083.04 677.836 1083.35 676.902 1083.96C675.996 1084.55 675.276 1085.35 674.742 1086.36C674.236 1087.37 673.982 1088.52 673.982 1089.8C673.982 1091.05 674.236 1092.2 674.742 1093.24C675.276 1094.25 675.996 1095.07 676.902 1095.68C677.836 1096.27 678.942 1096.56 680.222 1096.56ZM696.704 1100V1083.52H693.144V1079.6H696.704V1076.6C696.704 1074.79 697.211 1073.37 698.224 1072.36C699.264 1071.32 700.691 1070.8 702.504 1070.8H707.944V1074.72H703.344C702.731 1074.72 702.237 1074.91 701.864 1075.28C701.491 1075.65 701.304 1076.16 701.304 1076.8V1079.6H707.104V1083.52H701.304V1100H696.704ZM722.264 1100V1072H737.704C739.09 1072 740.317 1072.31 741.384 1072.92C742.477 1073.53 743.33 1074.37 743.944 1075.44C744.584 1076.51 744.904 1077.75 744.904 1079.16C744.904 1080.09 744.704 1080.99 744.304 1081.84C743.93 1082.69 743.41 1083.44 742.744 1084.08C742.077 1084.69 741.304 1085.17 740.424 1085.52C741.437 1085.81 742.33 1086.31 743.104 1087C743.904 1087.69 744.53 1088.52 744.984 1089.48C745.437 1090.44 745.664 1091.47 745.664 1092.56C745.664 1094 745.33 1095.28 744.664 1096.4C744.024 1097.52 743.13 1098.4 741.984 1099.04C740.864 1099.68 739.57 1100 738.104 1100H722.264ZM727.024 1095.76H736.824C737.624 1095.76 738.33 1095.59 738.944 1095.24C739.557 1094.87 740.024 1094.37 740.344 1093.76C740.69 1093.12 740.864 1092.45 740.864 1091.76C740.864 1091.04 740.69 1090.39 740.344 1089.8C739.997 1089.19 739.517 1088.69 738.904 1088.32C738.29 1087.95 737.57 1087.76 736.744 1087.76H727.024V1095.76ZM727.024 1083.72H736.224C736.97 1083.72 737.637 1083.55 738.224 1083.2C738.837 1082.85 739.304 1082.4 739.624 1081.84C739.97 1081.25 740.144 1080.63 740.144 1079.96C740.144 1079.27 739.984 1078.64 739.664 1078.08C739.344 1077.52 738.89 1077.07 738.304 1076.72C737.744 1076.37 737.09 1076.2 736.344 1076.2H727.024V1083.72ZM760.393 1100C758.099 1100 756.086 1099.57 754.353 1098.72C752.646 1097.84 751.313 1096.64 750.353 1095.12C749.393 1093.57 748.913 1091.8 748.913 1089.8C748.913 1087.69 749.339 1085.84 750.193 1084.24C751.046 1082.64 752.219 1081.39 753.713 1080.48C755.206 1079.57 756.926 1079.12 758.873 1079.12C761.059 1079.12 762.859 1079.59 764.273 1080.52C765.686 1081.45 766.726 1082.71 767.393 1084.28C768.086 1085.85 768.432 1087.61 768.432 1089.56C768.432 1089.83 768.419 1090.13 768.393 1090.48C768.366 1090.83 768.326 1091.09 768.273 1091.28H753.793C753.953 1092.35 754.339 1093.24 754.953 1093.96C755.566 1094.65 756.339 1095.19 757.273 1095.56C758.206 1095.91 759.246 1096.08 760.393 1096.08H765.873V1100H760.393ZM753.753 1088.16H763.833C763.806 1087.65 763.726 1087.15 763.593 1086.64C763.486 1086.13 763.299 1085.65 763.033 1085.2C762.793 1084.75 762.473 1084.36 762.073 1084.04C761.699 1083.69 761.246 1083.43 760.713 1083.24C760.179 1083.03 759.566 1082.92 758.873 1082.92C758.073 1082.92 757.366 1083.08 756.753 1083.4C756.139 1083.69 755.619 1084.09 755.193 1084.6C754.766 1085.08 754.433 1085.64 754.193 1086.28C753.979 1086.89 753.833 1087.52 753.753 1088.16ZM772.729 1100V1070.8H777.329V1100H772.729ZM782.846 1100V1087.8C782.846 1086.23 783.219 1084.79 783.966 1083.48C784.713 1082.15 785.793 1081.09 787.206 1080.32C788.619 1079.52 790.313 1079.12 792.286 1079.12C793.246 1079.12 794.166 1079.24 795.046 1079.48C795.926 1079.72 796.739 1080.11 797.486 1080.64C798.259 1081.15 798.913 1081.79 799.446 1082.56H799.486C800.019 1081.79 800.659 1081.15 801.406 1080.64C802.179 1080.11 803.006 1079.72 803.886 1079.48C804.793 1079.24 805.726 1079.12 806.686 1079.12C808.686 1079.12 810.379 1079.52 811.766 1080.32C813.179 1081.09 814.259 1082.15 815.006 1083.48C815.753 1084.79 816.126 1086.23 816.126 1087.8V1100H811.566V1087.8C811.566 1086.92 811.339 1086.12 810.886 1085.4C810.459 1084.68 809.886 1084.11 809.166 1083.68C808.446 1083.25 807.619 1083.04 806.686 1083.04C805.779 1083.04 804.953 1083.25 804.206 1083.68C803.459 1084.11 802.859 1084.68 802.406 1085.4C801.979 1086.12 801.766 1086.92 801.766 1087.8V1100H797.206V1087.8C797.206 1086.92 796.979 1086.12 796.526 1085.4C796.073 1084.68 795.473 1084.11 794.726 1083.68C794.006 1083.25 793.193 1083.04 792.286 1083.04C791.379 1083.04 790.553 1083.25 789.806 1083.68C789.086 1084.11 788.499 1084.68 788.046 1085.4C787.619 1086.12 787.406 1086.92 787.406 1087.8V1100H782.846ZM831.355 1100.48C829.248 1100.48 827.382 1100.01 825.755 1099.08C824.128 1098.12 822.835 1096.84 821.875 1095.24C820.942 1093.61 820.475 1091.8 820.475 1089.8C820.475 1087.8 820.942 1086 821.875 1084.4C822.835 1082.77 824.128 1081.49 825.755 1080.56C827.382 1079.6 829.248 1079.12 831.355 1079.12C833.435 1079.12 835.288 1079.6 836.915 1080.56C838.542 1081.49 839.822 1082.76 840.755 1084.36C841.715 1085.96 842.195 1087.77 842.195 1089.8C842.195 1091.8 841.715 1093.61 840.755 1095.24C839.822 1096.84 838.542 1098.12 836.915 1099.08C835.288 1100.01 833.435 1100.48 831.355 1100.48ZM831.355 1096.56C832.608 1096.56 833.702 1096.27 834.635 1095.68C835.568 1095.07 836.288 1094.25 836.795 1093.24C837.302 1092.23 837.555 1091.08 837.555 1089.8C837.555 1088.55 837.302 1087.41 836.795 1086.4C836.288 1085.36 835.568 1084.55 834.635 1083.96C833.702 1083.35 832.608 1083.04 831.355 1083.04C830.075 1083.04 828.968 1083.35 828.035 1083.96C827.128 1084.55 826.408 1085.35 825.875 1086.36C825.368 1087.37 825.115 1088.52 825.115 1089.8C825.115 1091.05 825.368 1092.2 825.875 1093.24C826.408 1094.25 827.128 1095.07 828.035 1095.68C828.968 1096.27 830.075 1096.56 831.355 1096.56ZM856.997 1079.12C858.65 1079.12 860.13 1079.39 861.437 1079.92C862.744 1080.43 863.85 1081.17 864.757 1082.16C865.69 1083.15 866.397 1084.32 866.877 1085.68C867.384 1087.01 867.637 1088.49 867.637 1090.12C867.637 1092.17 867.21 1093.99 866.357 1095.56C865.53 1097.11 864.37 1098.32 862.877 1099.2C861.41 1100.05 859.704 1100.48 857.757 1100.48C856.797 1100.48 855.89 1100.33 855.037 1100.04C854.184 1099.75 853.41 1099.33 852.717 1098.8C852.024 1098.27 851.464 1097.64 851.037 1096.92H850.997V1108.8H846.397V1090.04C846.397 1087.77 846.837 1085.83 847.717 1084.2C848.624 1082.57 849.877 1081.32 851.477 1080.44C853.077 1079.56 854.917 1079.12 856.997 1079.12ZM856.997 1083.04C855.85 1083.04 854.824 1083.33 853.917 1083.92C853.01 1084.48 852.304 1085.27 851.797 1086.28C851.29 1087.29 851.037 1088.47 851.037 1089.8C851.037 1091.11 851.29 1092.28 851.797 1093.32C852.304 1094.33 853.01 1095.13 853.917 1095.72C854.824 1096.28 855.864 1096.56 857.037 1096.56C858.21 1096.56 859.237 1096.27 860.117 1095.68C861.024 1095.09 861.73 1094.29 862.237 1093.28C862.744 1092.27 862.997 1091.11 862.997 1089.8C862.997 1088.47 862.744 1087.29 862.237 1086.28C861.73 1085.27 861.024 1084.48 860.117 1083.92C859.21 1083.33 858.17 1083.04 856.997 1083.04ZM880.267 1100.48C878.32 1100.48 876.64 1100 875.227 1099.04C873.813 1098.08 872.72 1096.8 871.947 1095.2C871.2 1093.57 870.827 1091.79 870.827 1089.84C870.827 1087.81 871.253 1086 872.107 1084.4C872.987 1082.77 874.227 1081.49 875.827 1080.56C877.453 1079.6 879.387 1079.12 881.627 1079.12C883.84 1079.12 885.72 1079.6 887.267 1080.56C888.84 1081.49 890.04 1082.77 890.867 1084.4C891.72 1086 892.147 1087.79 892.147 1089.76V1100H887.547V1096.2H887.467C887.067 1096.95 886.547 1097.65 885.907 1098.32C885.267 1098.96 884.48 1099.48 883.547 1099.88C882.613 1100.28 881.52 1100.48 880.267 1100.48ZM881.507 1096.56C882.707 1096.56 883.747 1096.27 884.627 1095.68C885.533 1095.07 886.227 1094.25 886.707 1093.24C887.213 1092.2 887.467 1091.04 887.467 1089.76C887.467 1088.48 887.227 1087.35 886.747 1086.36C886.267 1085.35 885.587 1084.55 884.707 1083.96C883.827 1083.35 882.773 1083.04 881.547 1083.04C880.267 1083.04 879.173 1083.35 878.267 1083.96C877.36 1084.55 876.667 1085.35 876.187 1086.36C875.707 1087.37 875.467 1088.52 875.467 1089.8C875.467 1091.05 875.707 1092.2 876.187 1093.24C876.667 1094.25 877.347 1095.07 878.227 1095.68C879.133 1096.27 880.227 1096.56 881.507 1096.56ZM897.651 1100V1088.24C897.651 1086.48 898.051 1084.92 898.851 1083.56C899.651 1082.17 900.784 1081.09 902.251 1080.32C903.717 1079.52 905.437 1079.12 907.411 1079.12C909.384 1079.12 911.091 1079.52 912.531 1080.32C913.997 1081.09 915.131 1082.17 915.931 1083.56C916.731 1084.92 917.131 1086.48 917.131 1088.24V1100H912.571V1088.28C912.571 1087.24 912.331 1086.33 911.851 1085.56C911.371 1084.76 910.731 1084.15 909.931 1083.72C909.157 1083.27 908.304 1083.04 907.371 1083.04C906.464 1083.04 905.611 1083.27 904.811 1083.72C904.037 1084.15 903.411 1084.76 902.931 1085.56C902.477 1086.33 902.251 1087.24 902.251 1088.28V1100H897.651Z" fill="black"/>
<path d="M151.96 1061.48C150.627 1061.48 149.413 1061.23 148.32 1060.72C147.227 1060.19 146.36 1059.39 145.72 1058.32C145.08 1057.23 144.76 1055.84 144.76 1054.16V1040.6H149.36V1054.88C149.36 1055.41 149.48 1055.89 149.72 1056.32C149.96 1056.72 150.267 1057.03 150.64 1057.24C151.04 1057.45 151.48 1057.56 151.96 1057.56C152.413 1057.56 152.84 1057.45 153.24 1057.24C153.64 1057.03 153.96 1056.72 154.2 1056.32C154.44 1055.89 154.56 1055.41 154.56 1054.88V1047.36C154.56 1045.79 154.853 1044.47 155.44 1043.4C156.053 1042.31 156.893 1041.49 157.96 1040.96C159.053 1040.4 160.293 1040.12 161.68 1040.12C163.093 1040.12 164.333 1040.4 165.4 1040.96C166.467 1041.49 167.307 1042.31 167.92 1043.4C168.533 1044.47 168.84 1045.79 168.84 1047.36V1054.88C168.84 1055.41 168.96 1055.89 169.2 1056.32C169.44 1056.72 169.76 1057.03 170.16 1057.24C170.56 1057.45 171 1057.56 171.48 1057.56C171.933 1057.56 172.347 1057.45 172.72 1057.24C173.12 1057.03 173.44 1056.72 173.68 1056.32C173.92 1055.89 174.04 1055.41 174.04 1054.88V1040.6H178.64V1054.16C178.64 1055.84 178.32 1057.23 177.68 1058.32C177.04 1059.39 176.173 1060.19 175.08 1060.72C173.987 1061.23 172.787 1061.48 171.48 1061.48C170.173 1061.48 168.973 1061.23 167.88 1060.72C166.787 1060.19 165.907 1059.39 165.24 1058.32C164.573 1057.23 164.24 1055.84 164.24 1054.16V1046.72C164.24 1046.13 164.12 1045.65 163.88 1045.28C163.667 1044.88 163.36 1044.57 162.96 1044.36C162.587 1044.15 162.16 1044.04 161.68 1044.04C161.253 1044.04 160.84 1044.15 160.44 1044.36C160.04 1044.57 159.72 1044.88 159.48 1045.28C159.24 1045.65 159.12 1046.13 159.12 1046.72V1054.16C159.12 1055.84 158.787 1057.23 158.12 1058.32C157.48 1059.39 156.613 1060.19 155.52 1060.72C154.453 1061.23 153.267 1061.48 151.96 1061.48ZM184.174 1061V1040.6H188.774V1061H184.174ZM186.454 1037.76C185.654 1037.76 184.961 1037.47 184.374 1036.88C183.787 1036.29 183.494 1035.6 183.494 1034.8C183.494 1034 183.787 1033.31 184.374 1032.72C184.961 1032.13 185.654 1031.84 186.454 1031.84C187.281 1031.84 187.974 1032.13 188.534 1032.72C189.121 1033.31 189.414 1034 189.414 1034.8C189.414 1035.6 189.121 1036.29 188.534 1036.88C187.974 1037.47 187.281 1037.76 186.454 1037.76ZM195.571 1061V1044.52H192.011V1040.6H195.571V1037.6C195.571 1035.79 196.078 1034.37 197.091 1033.36C198.131 1032.32 199.558 1031.8 201.371 1031.8H206.811V1035.72H202.211C201.598 1035.72 201.105 1035.91 200.731 1036.28C200.358 1036.65 200.171 1037.16 200.171 1037.8V1040.6H205.971V1044.52H200.171V1061H195.571ZM216.694 1069.12V1061.28C215.147 1060.99 213.814 1060.44 212.694 1059.64C211.574 1058.81 210.707 1057.77 210.094 1056.52C209.481 1055.27 209.174 1053.88 209.174 1052.36V1040.6H213.774V1052.32C213.774 1053.36 214.001 1054.28 214.454 1055.08C214.934 1055.85 215.561 1056.47 216.334 1056.92C217.134 1057.35 218.001 1057.56 218.934 1057.56C219.867 1057.56 220.721 1057.35 221.494 1056.92C222.294 1056.47 222.921 1055.85 223.374 1055.08C223.854 1054.28 224.094 1053.36 224.094 1052.32V1040.6H228.694V1052.36C228.694 1053.88 228.387 1055.25 227.774 1056.48C227.161 1057.71 226.294 1058.75 225.174 1059.6C224.081 1060.43 222.774 1060.97 221.254 1061.24V1069.12H216.694ZM236.213 1061.44C235.333 1061.44 234.573 1061.13 233.933 1060.52C233.32 1059.88 233.013 1059.12 233.013 1058.24C233.013 1057.39 233.32 1056.65 233.933 1056.04C234.573 1055.4 235.333 1055.08 236.213 1055.08C237.066 1055.08 237.8 1055.4 238.413 1056.04C239.053 1056.65 239.373 1057.39 239.373 1058.24C239.373 1058.83 239.226 1059.37 238.933 1059.88C238.666 1060.36 238.293 1060.73 237.813 1061C237.333 1061.29 236.8 1061.44 236.213 1061.44ZM243.705 1061V1048.8C243.705 1047.23 244.079 1045.79 244.825 1044.48C245.572 1043.15 246.652 1042.09 248.065 1041.32C249.479 1040.52 251.172 1040.12 253.145 1040.12C254.105 1040.12 255.025 1040.24 255.905 1040.48C256.785 1040.72 257.599 1041.11 258.345 1041.64C259.119 1042.15 259.772 1042.79 260.305 1043.56H260.345C260.879 1042.79 261.519 1042.15 262.265 1041.64C263.039 1041.11 263.865 1040.72 264.745 1040.48C265.652 1040.24 266.585 1040.12 267.545 1040.12C269.545 1040.12 271.239 1040.52 272.625 1041.32C274.039 1042.09 275.119 1043.15 275.865 1044.48C276.612 1045.79 276.985 1047.23 276.985 1048.8V1061H272.425V1048.8C272.425 1047.92 272.199 1047.12 271.745 1046.4C271.319 1045.68 270.745 1045.11 270.025 1044.68C269.305 1044.25 268.479 1044.04 267.545 1044.04C266.639 1044.04 265.812 1044.25 265.065 1044.68C264.319 1045.11 263.719 1045.68 263.265 1046.4C262.839 1047.12 262.625 1047.92 262.625 1048.8V1061H258.065V1048.8C258.065 1047.92 257.839 1047.12 257.385 1046.4C256.932 1045.68 256.332 1045.11 255.585 1044.68C254.865 1044.25 254.052 1044.04 253.145 1044.04C252.239 1044.04 251.412 1044.25 250.665 1044.68C249.945 1045.11 249.359 1045.68 248.905 1046.4C248.479 1047.12 248.265 1047.92 248.265 1048.8V1061H243.705ZM292.814 1061C290.521 1061 288.508 1060.57 286.774 1059.72C285.068 1058.84 283.734 1057.64 282.774 1056.12C281.814 1054.57 281.334 1052.8 281.334 1050.8C281.334 1048.69 281.761 1046.84 282.614 1045.24C283.468 1043.64 284.641 1042.39 286.134 1041.48C287.628 1040.57 289.348 1040.12 291.294 1040.12C293.481 1040.12 295.281 1040.59 296.694 1041.52C298.108 1042.45 299.148 1043.71 299.814 1045.28C300.508 1046.85 300.854 1048.61 300.854 1050.56C300.854 1050.83 300.841 1051.13 300.814 1051.48C300.788 1051.83 300.748 1052.09 300.694 1052.28H286.214C286.374 1053.35 286.761 1054.24 287.374 1054.96C287.988 1055.65 288.761 1056.19 289.694 1056.56C290.628 1056.91 291.668 1057.08 292.814 1057.08H298.294V1061H292.814ZM286.174 1049.16H296.254C296.228 1048.65 296.148 1048.15 296.014 1047.64C295.908 1047.13 295.721 1046.65 295.454 1046.2C295.214 1045.75 294.894 1045.36 294.494 1045.04C294.121 1044.69 293.668 1044.43 293.134 1044.24C292.601 1044.03 291.988 1043.92 291.294 1043.92C290.494 1043.92 289.788 1044.08 289.174 1044.4C288.561 1044.69 288.041 1045.09 287.614 1045.6C287.188 1046.08 286.854 1046.64 286.614 1047.28C286.401 1047.89 286.254 1048.52 286.174 1049.16Z" fill="black"/>
</g>
<defs>
<clipPath id="clip0_8_176">
<path d="M0 0H2850V1158C2850 1202.18 2814.18 1238 2770 1238H79.9999C35.8172 1238 0 1202.18 0 1158V0Z" fill="white"/>
</clipPath>
</defs>
</svg>
