<svg width="816" height="1056" viewBox="0 0 816 1056" fill="none" xmlns="http://www.w3.org/2000/svg">
<rect width="816" height="1056" fill="#F5F5F5"/>
<g clip-path="url(#clip0_8_175)">
<rect width="816" height="1056" fill="#F7ECDF"/>
<path d="M42.317 144.228C41.921 143.098 41.2903 142.872 40.1045 142.872H39V134.73H45.8721C49.1891 134.73 50.7686 135.71 51.5584 138.65L57.4828 159.981C58.0356 162.015 58.2726 164.05 58.2726 164.05H58.4305C58.4305 164.05 58.7464 162.014 59.3782 159.981L66.8032 134.882H75.6497L83.1524 159.981C83.7854 162.015 84.0223 164.05 84.0223 164.05H84.1803C84.1803 164.05 84.4172 162.014 84.97 159.981L90.8154 138.65C91.6052 135.711 93.1847 134.73 96.5018 134.73H103.374V142.872H102.269C101.084 142.872 100.531 143.098 100.057 144.228L90.4206 173.171H79.1235L72.2514 151.238C71.6196 149.202 71.3037 147.092 71.3037 147.092H71.1457C71.1457 147.092 70.7497 149.202 70.119 151.238L63.3259 173.171H51.9533L42.317 144.228Z" fill="#553F2E"/>
<path d="M111.027 144.53C111.027 143.398 110.394 142.872 109.289 142.872H106.129V134.73H115.686C119.399 134.73 120.978 136.314 120.978 139.856V163.447C120.978 164.502 121.611 165.105 122.716 165.105H125.875V173.17H116.318C112.606 173.17 111.027 171.663 111.027 168.044V144.53Z" fill="#553F2E"/>
<path d="M134.324 142.344H129.348V134.731H134.324V133.601C134.324 121.014 145.145 119.356 150.753 119.356C152.806 119.356 154.15 119.582 154.15 119.582V127.723C154.15 127.723 153.28 127.572 152.097 127.572C149.253 127.572 144.356 128.25 144.356 133.828V134.733H152.966V142.345H144.355V173.172H134.324V142.344Z" fill="#553F2E"/>
<path d="M164.73 180.935C167.494 180.935 169.942 179.351 171.364 176.035L172.706 173.096L159.279 144.229C158.805 143.099 158.252 142.873 157.147 142.873H155.961V134.731H162.596C165.44 134.731 166.861 135.711 167.888 138.349L175.786 157.57C176.576 159.529 177.208 162.695 177.208 162.695H177.367C177.367 162.695 177.999 159.531 178.709 157.57L185.581 138.349C186.528 135.711 188.188 134.731 190.952 134.731H197.745V142.873H196.561C195.375 142.873 194.744 143.099 194.27 144.229L179.815 178.976C176.971 185.909 171.285 189 165.281 189C158.962 189 155.093 185.081 155.093 185.081L158.963 178.297C158.963 178.297 161.413 180.935 164.73 180.935Z" fill="#553F2E"/>
<path d="M104.665 119.404L114.476 128.766L124.288 119.404C121.778 117.004 118.309 115.522 114.476 115.522C110.644 115.522 107.176 117.004 104.665 119.404Z" fill="#553F2E"/>
<path d="M85.0524 100.687L94.8545 110.037C99.8752 105.247 106.816 102.282 114.477 102.282C122.14 102.282 129.078 105.247 134.101 110.037L143.904 100.687C136.365 93.4912 125.959 89.0383 114.478 89.0383C102.998 89.0383 92.5902 93.4923 85.0524 100.687Z" fill="#553F2E"/>
<path d="M65.4346 81.9681L75.2288 91.31C85.2735 81.7248 99.1508 75.8001 114.477 75.8001C129.805 75.8001 143.682 81.7248 153.725 91.31L163.519 81.9681C150.954 69.9788 133.607 62.5533 114.476 62.5533C95.3476 62.5533 77.9998 69.9788 65.4346 81.9681Z" fill="#553F2E"/>
<path d="M114.476 49.5917C135.928 49.5917 155.485 57.3338 170.251 70.0477C170.9 67.7028 171.264 65.2491 171.264 62.7104C171.264 46.8539 157.796 34 141.179 34C129.561 34 119.491 40.2864 114.476 49.4851C109.463 40.2864 99.3923 34 87.7748 34C71.157 34 57.6892 46.8539 57.6892 62.7104C57.6892 65.2491 58.0537 67.7038 58.7024 70.0477C73.471 57.3338 93.0268 49.5917 114.476 49.5917Z" fill="#B3CC1F"/>
<path d="M206.824 144.53C206.824 143.398 206.192 142.872 205.087 142.872H201.927V134.73H211.168C214.722 134.73 216.459 136.314 216.459 139.027V140.158C216.459 140.987 216.38 141.816 216.38 141.816H216.539C218.435 138.047 223.252 133.826 229.572 133.826C235.654 133.826 239.603 136.54 241.341 141.74H241.499C243.632 137.595 248.845 133.826 255.243 133.826C263.615 133.826 268.433 138.348 268.433 148.448V163.447C268.433 164.502 269.066 165.105 270.17 165.105H273.25V173.17H263.773C259.982 173.17 258.402 171.663 258.402 168.044V150.258C258.402 145.885 257.532 142.569 252.873 142.569C247.898 142.569 244.343 146.564 243.237 151.387C242.763 152.894 242.604 154.478 242.604 156.287V173.17H232.573V150.258C232.573 146.111 231.941 142.569 227.123 142.569C222.069 142.569 218.672 146.564 217.408 151.463C217.013 152.971 216.776 154.553 216.776 156.287V173.17H206.824V144.53Z" fill="#B3CC1F"/>
<path d="M296.15 133.827C307.682 133.827 314 141.892 314 152.067C314 153.198 313.763 155.609 313.763 155.609H285.96C286.75 162.393 291.963 165.935 298.046 165.935C304.522 165.935 309.34 161.64 309.34 161.64L313.526 168.272C313.526 168.272 307.366 174.076 297.334 174.076C283.985 174.076 275.692 164.88 275.692 153.952C275.693 142.118 284.066 133.827 296.15 133.827ZM303.733 148.976C303.575 144.378 300.258 141.213 296.15 141.213C291.016 141.213 287.383 144.152 286.277 148.976H303.733Z" fill="#B3CC1F"/>
<path d="M516.976 129.288C516.176 129.288 515.448 129.136 514.792 128.832C514.136 128.512 513.616 128.032 513.232 127.392C512.848 126.736 512.656 125.904 512.656 124.896V116.76H515.416V125.328C515.416 125.648 515.488 125.936 515.632 126.192C515.776 126.432 515.96 126.616 516.184 126.744C516.424 126.872 516.688 126.936 516.976 126.936C517.248 126.936 517.504 126.872 517.744 126.744C517.984 126.616 518.176 126.432 518.32 126.192C518.464 125.936 518.536 125.648 518.536 125.328V120.816C518.536 119.872 518.712 119.08 519.064 118.44C519.432 117.784 519.936 117.296 520.576 116.976C521.232 116.64 521.976 116.472 522.808 116.472C523.656 116.472 524.4 116.64 525.04 116.976C525.68 117.296 526.184 117.784 526.552 118.44C526.92 119.08 527.104 119.872 527.104 120.816V125.328C527.104 125.648 527.176 125.936 527.32 126.192C527.464 126.432 527.656 126.616 527.896 126.744C528.136 126.872 528.4 126.936 528.688 126.936C528.96 126.936 529.208 126.872 529.432 126.744C529.672 126.616 529.864 126.432 530.008 126.192C530.152 125.936 530.224 125.648 530.224 125.328V116.76H532.984V124.896C532.984 125.904 532.792 126.736 532.408 127.392C532.024 128.032 531.504 128.512 530.848 128.832C530.192 129.136 529.472 129.288 528.688 129.288C527.904 129.288 527.184 129.136 526.528 128.832C525.872 128.512 525.344 128.032 524.944 127.392C524.544 126.736 524.344 125.904 524.344 124.896V120.432C524.344 120.08 524.272 119.792 524.128 119.568C524 119.328 523.816 119.144 523.576 119.016C523.352 118.888 523.096 118.824 522.808 118.824C522.552 118.824 522.304 118.888 522.064 119.016C521.824 119.144 521.632 119.328 521.488 119.568C521.344 119.792 521.272 120.08 521.272 120.432V124.896C521.272 125.904 521.072 126.736 520.672 127.392C520.288 128.032 519.768 128.512 519.112 128.832C518.472 129.136 517.76 129.288 516.976 129.288ZM536.304 129V116.76H539.064V129H536.304ZM537.672 115.056C537.192 115.056 536.776 114.88 536.424 114.528C536.072 114.176 535.896 113.76 535.896 113.28C535.896 112.8 536.072 112.384 536.424 112.032C536.776 111.68 537.192 111.504 537.672 111.504C538.168 111.504 538.584 111.68 538.92 112.032C539.272 112.384 539.448 112.8 539.448 113.28C539.448 113.76 539.272 114.176 538.92 114.528C538.584 114.88 538.168 115.056 537.672 115.056ZM543.143 129V119.112H541.007V116.76H543.143V114.96C543.143 113.872 543.447 113.024 544.055 112.416C544.679 111.792 545.535 111.48 546.623 111.48H549.887V113.832H547.127C546.759 113.832 546.463 113.944 546.239 114.168C546.015 114.392 545.903 114.696 545.903 115.08V116.76H549.383V119.112H545.903V129H543.143ZM555.816 133.872V129.168C554.888 128.992 554.088 128.664 553.416 128.184C552.744 127.688 552.224 127.064 551.856 126.312C551.488 125.56 551.304 124.728 551.304 123.816V116.76H554.064V123.792C554.064 124.416 554.2 124.968 554.472 125.448C554.76 125.912 555.136 126.28 555.6 126.552C556.08 126.808 556.6 126.936 557.16 126.936C557.72 126.936 558.232 126.808 558.696 126.552C559.176 126.28 559.552 125.912 559.824 125.448C560.112 124.968 560.256 124.416 560.256 123.792V116.76H563.016V123.816C563.016 124.728 562.832 125.552 562.464 126.288C562.096 127.024 561.576 127.648 560.904 128.16C560.248 128.656 559.464 128.984 558.552 129.144V133.872H555.816ZM567.528 129.264C567 129.264 566.544 129.08 566.16 128.712C565.792 128.328 565.608 127.872 565.608 127.344C565.608 126.832 565.792 126.392 566.16 126.024C566.544 125.64 567 125.448 567.528 125.448C568.04 125.448 568.48 125.64 568.848 126.024C569.232 126.392 569.424 126.832 569.424 127.344C569.424 127.696 569.336 128.024 569.16 128.328C569 128.616 568.776 128.84 568.488 129C568.2 129.176 567.88 129.264 567.528 129.264ZM572.023 129V121.68C572.023 120.736 572.247 119.872 572.695 119.088C573.143 118.288 573.791 117.656 574.639 117.192C575.487 116.712 576.503 116.472 577.687 116.472C578.263 116.472 578.815 116.544 579.343 116.688C579.871 116.832 580.359 117.064 580.807 117.384C581.271 117.688 581.663 118.072 581.983 118.536H582.007C582.327 118.072 582.711 117.688 583.159 117.384C583.623 117.064 584.119 116.832 584.647 116.688C585.191 116.544 585.751 116.472 586.327 116.472C587.527 116.472 588.543 116.712 589.375 117.192C590.223 117.656 590.871 118.288 591.319 119.088C591.767 119.872 591.991 120.736 591.991 121.68V129H589.255V121.68C589.255 121.152 589.119 120.672 588.847 120.24C588.591 119.808 588.247 119.464 587.815 119.208C587.383 118.952 586.887 118.824 586.327 118.824C585.783 118.824 585.287 118.952 584.839 119.208C584.391 119.464 584.031 119.808 583.759 120.24C583.503 120.672 583.375 121.152 583.375 121.68V129H580.639V121.68C580.639 121.152 580.503 120.672 580.231 120.24C579.959 119.808 579.599 119.464 579.151 119.208C578.719 118.952 578.231 118.824 577.687 118.824C577.143 118.824 576.647 118.952 576.199 119.208C575.767 119.464 575.415 119.808 575.143 120.24C574.887 120.672 574.759 121.152 574.759 121.68V129H572.023ZM601.489 129C600.113 129 598.905 128.744 597.865 128.232C596.841 127.704 596.041 126.984 595.465 126.072C594.889 125.144 594.601 124.08 594.601 122.88C594.601 121.616 594.857 120.504 595.369 119.544C595.881 118.584 596.585 117.832 597.481 117.288C598.377 116.744 599.409 116.472 600.577 116.472C601.889 116.472 602.969 116.752 603.817 117.312C604.665 117.872 605.289 118.624 605.689 119.568C606.105 120.512 606.313 121.568 606.313 122.736C606.313 122.896 606.305 123.08 606.289 123.288C606.273 123.496 606.249 123.656 606.217 123.768H597.529C597.625 124.408 597.857 124.944 598.225 125.376C598.593 125.792 599.057 126.112 599.617 126.336C600.177 126.544 600.801 126.648 601.489 126.648H604.777V129H601.489ZM597.505 121.896H603.553C603.537 121.592 603.489 121.288 603.409 120.984C603.345 120.68 603.233 120.392 603.073 120.12C602.929 119.848 602.737 119.616 602.497 119.424C602.273 119.216 602.001 119.056 601.681 118.944C601.361 118.816 600.993 118.752 600.577 118.752C600.097 118.752 599.673 118.848 599.305 119.04C598.937 119.216 598.625 119.456 598.369 119.76C598.113 120.048 597.913 120.384 597.769 120.768C597.641 121.136 597.553 121.512 597.505 121.896Z" fill="#553F2E"/>
<path d="M512.752 152V135.2H515.608V142.184H523.72V135.2H526.576V152H523.72V144.728H515.608V152H512.752ZM535.832 152.288C534.648 152.288 533.616 152.056 532.736 151.592C531.856 151.112 531.176 150.456 530.696 149.624C530.216 148.792 529.976 147.856 529.976 146.816V139.76H532.736V146.792C532.736 147.416 532.872 147.968 533.144 148.448C533.432 148.912 533.808 149.28 534.272 149.552C534.752 149.808 535.272 149.936 535.832 149.936C536.392 149.936 536.904 149.808 537.368 149.552C537.848 149.28 538.224 148.912 538.496 148.448C538.784 147.968 538.928 147.416 538.928 146.792V139.76H541.688V146.816C541.688 147.856 541.448 148.792 540.968 149.624C540.488 150.456 539.808 151.112 538.928 151.592C538.048 152.056 537.016 152.288 535.832 152.288ZM545 152V144.68C545 143.736 545.224 142.872 545.672 142.088C546.12 141.288 546.768 140.656 547.616 140.192C548.464 139.712 549.48 139.472 550.664 139.472C551.24 139.472 551.792 139.544 552.32 139.688C552.848 139.832 553.336 140.064 553.784 140.384C554.248 140.688 554.64 141.072 554.96 141.536H554.984C555.304 141.072 555.688 140.688 556.136 140.384C556.6 140.064 557.096 139.832 557.624 139.688C558.168 139.544 558.728 139.472 559.304 139.472C560.504 139.472 561.52 139.712 562.352 140.192C563.2 140.656 563.848 141.288 564.296 142.088C564.744 142.872 564.968 143.736 564.968 144.68V152H562.232V144.68C562.232 144.152 562.096 143.672 561.824 143.24C561.568 142.808 561.224 142.464 560.792 142.208C560.36 141.952 559.864 141.824 559.304 141.824C558.76 141.824 558.264 141.952 557.816 142.208C557.368 142.464 557.008 142.808 556.736 143.24C556.48 143.672 556.352 144.152 556.352 144.68V152H553.616V144.68C553.616 144.152 553.48 143.672 553.208 143.24C552.936 142.808 552.576 142.464 552.128 142.208C551.696 141.952 551.208 141.824 550.664 141.824C550.12 141.824 549.624 141.952 549.176 142.208C548.744 142.464 548.392 142.808 548.12 143.24C547.864 143.672 547.736 144.152 547.736 144.68V152H545ZM568.273 152V144.68C568.273 143.736 568.497 142.872 568.945 142.088C569.393 141.288 570.041 140.656 570.889 140.192C571.737 139.712 572.753 139.472 573.937 139.472C574.513 139.472 575.065 139.544 575.593 139.688C576.121 139.832 576.609 140.064 577.057 140.384C577.521 140.688 577.913 141.072 578.233 141.536H578.257C578.577 141.072 578.961 140.688 579.409 140.384C579.873 140.064 580.369 139.832 580.897 139.688C581.441 139.544 582.001 139.472 582.577 139.472C583.777 139.472 584.793 139.712 585.625 140.192C586.473 140.656 587.121 141.288 587.569 142.088C588.017 142.872 588.241 143.736 588.241 144.68V152H585.505V144.68C585.505 144.152 585.369 143.672 585.097 143.24C584.841 142.808 584.497 142.464 584.065 142.208C583.633 141.952 583.137 141.824 582.577 141.824C582.033 141.824 581.537 141.952 581.089 142.208C580.641 142.464 580.281 142.808 580.009 143.24C579.753 143.672 579.625 144.152 579.625 144.68V152H576.889V144.68C576.889 144.152 576.753 143.672 576.481 143.24C576.209 142.808 575.849 142.464 575.401 142.208C574.969 141.952 574.481 141.824 573.937 141.824C573.393 141.824 572.897 141.952 572.449 142.208C572.017 142.464 571.665 142.808 571.393 143.24C571.137 143.672 571.009 144.152 571.009 144.68V152H568.273ZM591.547 152V139.76H594.307V152H591.547ZM592.915 138.056C592.435 138.056 592.019 137.88 591.667 137.528C591.315 137.176 591.139 136.76 591.139 136.28C591.139 135.8 591.315 135.384 591.667 135.032C592.019 134.68 592.435 134.504 592.915 134.504C593.411 134.504 593.827 134.68 594.163 135.032C594.515 135.384 594.691 135.8 594.691 136.28C594.691 136.76 594.515 137.176 594.163 137.528C593.827 137.88 593.411 138.056 592.915 138.056ZM597.617 152V144.944C597.617 143.888 597.857 142.952 598.337 142.136C598.817 141.304 599.497 140.656 600.377 140.192C601.257 139.712 602.289 139.472 603.473 139.472C604.657 139.472 605.681 139.712 606.545 140.192C607.425 140.656 608.105 141.304 608.585 142.136C609.065 142.952 609.305 143.888 609.305 144.944V152H606.569V144.968C606.569 144.344 606.425 143.8 606.137 143.336C605.849 142.856 605.465 142.488 604.985 142.232C604.521 141.96 604.009 141.824 603.449 141.824C602.905 141.824 602.393 141.96 601.913 142.232C601.449 142.488 601.073 142.856 600.785 143.336C600.513 143.8 600.377 144.344 600.377 144.968V152H597.617ZM614.465 156.872V154.52H620.609C621.025 154.52 621.345 154.392 621.569 154.136C621.809 153.88 621.929 153.56 621.929 153.176V150.008H621.905C621.553 150.44 621.177 150.816 620.777 151.136C620.377 151.44 619.921 151.68 619.409 151.856C618.913 152.016 618.361 152.096 617.753 152.096C616.633 152.096 615.633 151.832 614.753 151.304C613.873 150.776 613.177 150.04 612.665 149.096C612.169 148.136 611.921 147.04 611.921 145.808C611.921 144.608 612.169 143.536 612.665 142.592C613.177 141.632 613.905 140.872 614.849 140.312C615.793 139.752 616.945 139.472 618.305 139.472C619.601 139.472 620.721 139.744 621.665 140.288C622.625 140.832 623.369 141.6 623.897 142.592C624.425 143.568 624.689 144.712 624.689 146.024V153.296C624.689 154.4 624.369 155.272 623.729 155.912C623.089 156.552 622.217 156.872 621.113 156.872H614.465ZM618.281 149.744C619.017 149.744 619.649 149.576 620.177 149.24C620.721 148.888 621.137 148.424 621.425 147.848C621.729 147.256 621.881 146.6 621.881 145.88C621.881 145.112 621.737 144.424 621.449 143.816C621.161 143.208 620.745 142.728 620.201 142.376C619.673 142.008 619.033 141.824 618.281 141.824C617.545 141.824 616.905 142.008 616.361 142.376C615.833 142.728 615.425 143.208 615.137 143.816C614.849 144.408 614.705 145.08 614.705 145.832C614.705 146.552 614.849 147.208 615.137 147.8C615.425 148.392 615.833 148.864 616.361 149.216C616.905 149.568 617.545 149.744 618.281 149.744ZM634.162 152.288C632.914 152.288 631.81 152.024 630.85 151.496C629.89 150.968 629.138 150.216 628.594 149.24C628.066 148.248 627.802 147.08 627.802 145.736V134.48H630.562V141.608H630.586C630.842 141.176 631.178 140.8 631.594 140.48C632.01 140.16 632.474 139.912 632.986 139.736C633.498 139.56 634.042 139.472 634.618 139.472C635.786 139.472 636.81 139.736 637.69 140.264C638.586 140.776 639.282 141.496 639.778 142.424C640.29 143.352 640.546 144.44 640.546 145.688C640.546 146.664 640.394 147.56 640.09 148.376C639.802 149.176 639.378 149.872 638.818 150.464C638.274 151.056 637.61 151.512 636.826 151.832C636.042 152.136 635.154 152.288 634.162 152.288ZM634.162 149.936C634.866 149.936 635.49 149.768 636.034 149.432C636.578 149.08 637.002 148.6 637.306 147.992C637.61 147.384 637.762 146.68 637.762 145.88C637.762 145.096 637.61 144.4 637.306 143.792C637.002 143.184 636.578 142.704 636.034 142.352C635.506 142 634.89 141.824 634.186 141.824C633.482 141.824 632.858 142 632.314 142.352C631.77 142.688 631.346 143.16 631.042 143.768C630.738 144.376 630.586 145.08 630.586 145.88C630.586 146.68 630.738 147.384 631.042 147.992C631.346 148.6 631.77 149.08 632.314 149.432C632.858 149.768 633.474 149.936 634.162 149.936ZM643.156 152V139.76H645.916V152H643.156ZM644.524 138.056C644.044 138.056 643.628 137.88 643.276 137.528C642.924 137.176 642.748 136.76 642.748 136.28C642.748 135.8 642.924 135.384 643.276 135.032C643.628 134.68 644.044 134.504 644.524 134.504C645.02 134.504 645.436 134.68 645.772 135.032C646.124 135.384 646.3 135.8 646.3 136.28C646.3 136.76 646.124 137.176 645.772 137.528C645.436 137.88 645.02 138.056 644.524 138.056ZM649.13 152V143.24C649.13 142.152 649.434 141.304 650.042 140.696C650.666 140.072 651.522 139.76 652.61 139.76H655.562V142.112H653.114C652.73 142.112 652.426 142.224 652.202 142.448C651.994 142.672 651.89 142.976 651.89 143.36V152H649.13ZM663.164 152.288C662.188 152.288 661.3 152.136 660.5 151.832C659.716 151.512 659.044 151.056 658.484 150.464C657.94 149.872 657.516 149.176 657.212 148.376C656.924 147.56 656.78 146.664 656.78 145.688C656.78 144.44 657.028 143.352 657.524 142.424C658.036 141.496 658.74 140.776 659.636 140.264C660.532 139.736 661.556 139.472 662.708 139.472C663.284 139.472 663.828 139.56 664.34 139.736C664.852 139.912 665.316 140.16 665.732 140.48C666.148 140.8 666.484 141.176 666.74 141.608H666.764V134.48H669.524V145.736C669.524 147.08 669.252 148.248 668.708 149.24C668.18 150.216 667.436 150.968 666.476 151.496C665.532 152.024 664.428 152.288 663.164 152.288ZM663.164 149.936C663.868 149.936 664.484 149.768 665.012 149.432C665.556 149.08 665.98 148.6 666.284 147.992C666.588 147.384 666.74 146.68 666.74 145.88C666.74 145.08 666.588 144.376 666.284 143.768C665.98 143.16 665.556 142.688 665.012 142.352C664.484 142 663.86 141.824 663.14 141.824C662.452 141.824 661.836 142 661.292 142.352C660.748 142.704 660.324 143.184 660.02 143.792C659.716 144.4 659.564 145.096 659.564 145.88C659.564 146.68 659.716 147.384 660.02 147.992C660.324 148.6 660.748 149.08 661.292 149.432C661.852 149.768 662.476 149.936 663.164 149.936ZM676.727 152L682.319 136.928C682.591 136.24 682.983 135.736 683.495 135.416C684.007 135.08 684.591 134.912 685.247 134.912C685.919 134.912 686.511 135.072 687.023 135.392C687.551 135.712 687.943 136.216 688.199 136.904L693.815 152H690.671L689.375 148.28H681.071L679.727 152H676.727ZM681.935 145.736H688.511L685.823 137.888C685.759 137.728 685.679 137.608 685.583 137.528C685.503 137.448 685.399 137.408 685.271 137.408C685.143 137.408 685.039 137.456 684.959 137.552C684.879 137.632 684.815 137.744 684.767 137.888L681.935 145.736ZM700.748 152.288C700.108 152.288 699.532 152.112 699.02 151.76C698.524 151.408 698.164 150.936 697.94 150.344L694.196 139.76H697.196L700.388 149.264C700.436 149.376 700.492 149.456 700.556 149.504C700.62 149.552 700.692 149.576 700.772 149.576C700.852 149.576 700.924 149.552 700.988 149.504C701.068 149.456 701.124 149.376 701.156 149.264L704.372 139.76H707.324L703.556 150.344C703.348 150.936 702.988 151.408 702.476 151.76C701.964 152.112 701.388 152.288 700.748 152.288ZM715.067 152C713.691 152 712.483 151.744 711.443 151.232C710.419 150.704 709.619 149.984 709.043 149.072C708.467 148.144 708.179 147.08 708.179 145.88C708.179 144.616 708.435 143.504 708.947 142.544C709.459 141.584 710.163 140.832 711.059 140.288C711.955 139.744 712.987 139.472 714.155 139.472C715.467 139.472 716.547 139.752 717.395 140.312C718.243 140.872 718.867 141.624 719.267 142.568C719.683 143.512 719.891 144.568 719.891 145.736C719.891 145.896 719.883 146.08 719.867 146.288C719.851 146.496 719.827 146.656 719.795 146.768H711.107C711.203 147.408 711.435 147.944 711.803 148.376C712.171 148.792 712.635 149.112 713.195 149.336C713.755 149.544 714.379 149.648 715.067 149.648H718.355V152H715.067ZM711.083 144.896H717.131C717.115 144.592 717.067 144.288 716.987 143.984C716.923 143.68 716.811 143.392 716.651 143.12C716.507 142.848 716.315 142.616 716.075 142.424C715.851 142.216 715.579 142.056 715.259 141.944C714.939 141.816 714.571 141.752 714.155 141.752C713.675 141.752 713.251 141.848 712.883 142.04C712.515 142.216 712.203 142.456 711.947 142.76C711.691 143.048 711.491 143.384 711.347 143.768C711.219 144.136 711.131 144.512 711.083 144.896ZM722.469 152V144.944C722.469 143.888 722.709 142.952 723.189 142.136C723.669 141.304 724.349 140.656 725.229 140.192C726.109 139.712 727.141 139.472 728.325 139.472C729.509 139.472 730.533 139.712 731.397 140.192C732.277 140.656 732.957 141.304 733.437 142.136C733.917 142.952 734.157 143.888 734.157 144.944V152H731.421V144.968C731.421 144.344 731.277 143.8 730.989 143.336C730.701 142.856 730.317 142.488 729.837 142.232C729.373 141.96 728.861 141.824 728.301 141.824C727.757 141.824 727.245 141.96 726.765 142.232C726.301 142.488 725.925 142.856 725.637 143.336C725.365 143.8 725.229 144.344 725.229 144.968V152H722.469ZM743.325 152.288C742.141 152.288 741.109 152.056 740.229 151.592C739.349 151.112 738.669 150.456 738.189 149.624C737.709 148.792 737.469 147.856 737.469 146.816V139.76H740.229V146.792C740.229 147.416 740.365 147.968 740.637 148.448C740.925 148.912 741.301 149.28 741.765 149.552C742.245 149.808 742.765 149.936 743.325 149.936C743.885 149.936 744.397 149.808 744.861 149.552C745.341 149.28 745.717 148.912 745.989 148.448C746.277 147.968 746.421 147.416 746.421 146.792V139.76H749.181V146.816C749.181 147.856 748.941 148.792 748.461 149.624C747.981 150.456 747.301 151.112 746.421 151.592C745.541 152.056 744.509 152.288 743.325 152.288ZM758.684 152C757.308 152 756.1 151.744 755.06 151.232C754.036 150.704 753.236 149.984 752.66 149.072C752.084 148.144 751.796 147.08 751.796 145.88C751.796 144.616 752.052 143.504 752.564 142.544C753.076 141.584 753.78 140.832 754.676 140.288C755.572 139.744 756.604 139.472 757.772 139.472C759.084 139.472 760.164 139.752 761.012 140.312C761.86 140.872 762.484 141.624 762.884 142.568C763.3 143.512 763.508 144.568 763.508 145.736C763.508 145.896 763.5 146.08 763.484 146.288C763.468 146.496 763.444 146.656 763.412 146.768H754.724C754.82 147.408 755.052 147.944 755.42 148.376C755.788 148.792 756.252 149.112 756.812 149.336C757.372 149.544 757.996 149.648 758.684 149.648H761.972V152H758.684ZM754.7 144.896H760.748C760.732 144.592 760.684 144.288 760.604 143.984C760.54 143.68 760.428 143.392 760.268 143.12C760.124 142.848 759.932 142.616 759.692 142.424C759.468 142.216 759.196 142.056 758.876 141.944C758.556 141.816 758.188 141.752 757.772 141.752C757.292 141.752 756.868 141.848 756.5 142.04C756.132 142.216 755.82 142.456 755.564 142.76C755.308 143.048 755.108 143.384 754.964 143.768C754.836 144.136 754.748 144.512 754.7 144.896ZM765.462 155.672L766.614 152.12C766.198 151.976 765.886 151.736 765.678 151.4C765.47 151.048 765.366 150.688 765.366 150.32C765.366 149.792 765.55 149.352 765.918 149C766.302 148.632 766.758 148.448 767.286 148.448C767.862 148.448 768.318 148.648 768.654 149.048C769.006 149.432 769.182 149.896 769.182 150.44C769.182 150.808 769.15 151.152 769.086 151.472C769.022 151.776 768.918 152.128 768.774 152.528L767.766 155.672H765.462Z" fill="#553F2E"/>
<path d="M520.336 175C519.024 175 517.84 174.784 516.784 174.352C515.744 173.904 514.84 173.296 514.072 172.528C513.32 171.76 512.736 170.872 512.32 169.864C511.92 168.84 511.72 167.752 511.72 166.6C511.72 165.448 511.92 164.368 512.32 163.36C512.736 162.336 513.32 161.44 514.072 160.672C514.84 159.904 515.744 159.304 516.784 158.872C517.84 158.424 519.024 158.2 520.336 158.2H522.712V160.72H520.408C519.56 160.72 518.784 160.872 518.08 161.176C517.376 161.48 516.76 161.896 516.232 162.424C515.72 162.952 515.32 163.576 515.032 164.296C514.744 165 514.6 165.768 514.6 166.6C514.6 167.432 514.744 168.208 515.032 168.928C515.32 169.648 515.72 170.272 516.232 170.8C516.76 171.312 517.376 171.72 518.08 172.024C518.784 172.312 519.56 172.456 520.408 172.456H522.712V175H520.336ZM525.289 175V162.76H528.049V175H525.289ZM526.657 161.056C526.177 161.056 525.761 160.88 525.409 160.528C525.057 160.176 524.881 159.76 524.881 159.28C524.881 158.8 525.057 158.384 525.409 158.032C525.761 157.68 526.177 157.504 526.657 157.504C527.153 157.504 527.569 157.68 527.905 158.032C528.257 158.384 528.433 158.8 528.433 159.28C528.433 159.76 528.257 160.176 527.905 160.528C527.569 160.88 527.153 161.056 526.657 161.056ZM535.583 175C534.495 175 533.639 174.688 533.015 174.064C532.407 173.44 532.103 172.592 532.103 171.52V159.688H534.839V171.4C534.839 171.768 534.951 172.072 535.175 172.312C535.399 172.536 535.695 172.648 536.063 172.648H538.631V175H535.583ZM529.991 165.112V162.76H538.655V165.112H529.991ZM545.762 179.872V175.168C544.834 174.992 544.034 174.664 543.362 174.184C542.69 173.688 542.17 173.064 541.802 172.312C541.434 171.56 541.25 170.728 541.25 169.816V162.76H544.01V169.792C544.01 170.416 544.146 170.968 544.418 171.448C544.706 171.912 545.082 172.28 545.546 172.552C546.026 172.808 546.546 172.936 547.106 172.936C547.666 172.936 548.178 172.808 548.642 172.552C549.122 172.28 549.498 171.912 549.77 171.448C550.058 170.968 550.202 170.416 550.202 169.792V162.76H552.962V169.816C552.962 170.728 552.778 171.552 552.41 172.288C552.042 173.024 551.522 173.648 550.85 174.16C550.194 174.656 549.41 174.984 548.498 175.144V179.872H545.762ZM568.457 175.288C567.193 175.288 566.073 175.008 565.097 174.448C564.121 173.872 563.345 173.104 562.769 172.144C562.209 171.168 561.929 170.08 561.929 168.88C561.929 167.68 562.209 166.6 562.769 165.64C563.345 164.664 564.121 163.896 565.097 163.336C566.073 162.76 567.193 162.472 568.457 162.472C569.705 162.472 570.817 162.76 571.793 163.336C572.769 163.896 573.537 164.656 574.097 165.616C574.673 166.576 574.961 167.664 574.961 168.88C574.961 170.08 574.673 171.168 574.097 172.144C573.537 173.104 572.769 173.872 571.793 174.448C570.817 175.008 569.705 175.288 568.457 175.288ZM568.457 172.936C569.209 172.936 569.865 172.76 570.425 172.408C570.985 172.04 571.417 171.552 571.721 170.944C572.025 170.336 572.177 169.648 572.177 168.88C572.177 168.128 572.025 167.448 571.721 166.84C571.417 166.216 570.985 165.728 570.425 165.376C569.865 165.008 569.209 164.824 568.457 164.824C567.689 164.824 567.025 165.008 566.465 165.376C565.921 165.728 565.489 166.208 565.169 166.816C564.865 167.424 564.713 168.112 564.713 168.88C564.713 169.632 564.865 170.32 565.169 170.944C565.489 171.552 565.921 172.04 566.465 172.408C567.025 172.76 567.689 172.936 568.457 172.936ZM578.346 175V165.112H576.21V162.76H578.346V160.96C578.346 159.872 578.65 159.024 579.258 158.416C579.882 157.792 580.738 157.48 581.826 157.48H585.09V159.832H582.33C581.962 159.832 581.666 159.944 581.442 160.168C581.218 160.392 581.106 160.696 581.106 161.08V162.76H584.586V165.112H581.106V175H578.346ZM593.682 175V158.2H602.946C603.778 158.2 604.514 158.384 605.154 158.752C605.81 159.12 606.322 159.624 606.69 160.264C607.074 160.904 607.266 161.648 607.266 162.496C607.266 163.056 607.146 163.592 606.906 164.104C606.682 164.616 606.37 165.064 605.97 165.448C605.57 165.816 605.106 166.104 604.578 166.312C605.186 166.488 605.722 166.784 606.186 167.2C606.666 167.616 607.042 168.112 607.314 168.688C607.586 169.264 607.722 169.88 607.722 170.536C607.722 171.4 607.522 172.168 607.122 172.84C606.738 173.512 606.202 174.04 605.514 174.424C604.842 174.808 604.066 175 603.186 175H593.682ZM596.538 172.456H602.418C602.898 172.456 603.322 172.352 603.69 172.144C604.058 171.92 604.338 171.624 604.53 171.256C604.738 170.872 604.842 170.472 604.842 170.056C604.842 169.624 604.738 169.232 604.53 168.88C604.322 168.512 604.034 168.216 603.666 167.992C603.298 167.768 602.866 167.656 602.37 167.656H596.538V172.456ZM596.538 165.232H602.058C602.506 165.232 602.906 165.128 603.258 164.92C603.626 164.712 603.906 164.44 604.098 164.104C604.306 163.752 604.41 163.376 604.41 162.976C604.41 162.56 604.314 162.184 604.122 161.848C603.93 161.512 603.658 161.24 603.306 161.032C602.97 160.824 602.578 160.72 602.13 160.72H596.538V165.232ZM616.559 175C615.183 175 613.975 174.744 612.935 174.232C611.911 173.704 611.111 172.984 610.535 172.072C609.959 171.144 609.671 170.08 609.671 168.88C609.671 167.616 609.927 166.504 610.439 165.544C610.951 164.584 611.655 163.832 612.551 163.288C613.447 162.744 614.479 162.472 615.647 162.472C616.959 162.472 618.039 162.752 618.887 163.312C619.735 163.872 620.359 164.624 620.759 165.568C621.175 166.512 621.383 167.568 621.383 168.736C621.383 168.896 621.375 169.08 621.359 169.288C621.343 169.496 621.319 169.656 621.287 169.768H612.599C612.695 170.408 612.927 170.944 613.295 171.376C613.663 171.792 614.127 172.112 614.687 172.336C615.247 172.544 615.871 172.648 616.559 172.648H619.847V175H616.559ZM612.575 167.896H618.623C618.607 167.592 618.559 167.288 618.479 166.984C618.415 166.68 618.303 166.392 618.143 166.12C617.999 165.848 617.807 165.616 617.567 165.424C617.343 165.216 617.071 165.056 616.751 164.944C616.431 164.816 616.063 164.752 615.647 164.752C615.167 164.752 614.743 164.848 614.375 165.04C614.007 165.216 613.695 165.456 613.439 165.76C613.183 166.048 612.983 166.384 612.839 166.768C612.711 167.136 612.623 167.512 612.575 167.896ZM623.961 175V157.48H626.721V175H623.961ZM630.031 175V167.68C630.031 166.736 630.255 165.872 630.703 165.088C631.151 164.288 631.799 163.656 632.647 163.192C633.495 162.712 634.511 162.472 635.695 162.472C636.271 162.472 636.823 162.544 637.351 162.688C637.879 162.832 638.367 163.064 638.815 163.384C639.279 163.688 639.671 164.072 639.991 164.536H640.015C640.335 164.072 640.719 163.688 641.167 163.384C641.631 163.064 642.127 162.832 642.655 162.688C643.199 162.544 643.759 162.472 644.335 162.472C645.535 162.472 646.551 162.712 647.383 163.192C648.231 163.656 648.879 164.288 649.327 165.088C649.775 165.872 649.999 166.736 649.999 167.68V175H647.263V167.68C647.263 167.152 647.127 166.672 646.855 166.24C646.599 165.808 646.255 165.464 645.823 165.208C645.391 164.952 644.895 164.824 644.335 164.824C643.791 164.824 643.295 164.952 642.847 165.208C642.399 165.464 642.039 165.808 641.767 166.24C641.511 166.672 641.383 167.152 641.383 167.68V175H638.647V167.68C638.647 167.152 638.511 166.672 638.239 166.24C637.967 165.808 637.607 165.464 637.159 165.208C636.727 164.952 636.239 164.824 635.695 164.824C635.151 164.824 634.655 164.952 634.207 165.208C633.775 165.464 633.423 165.808 633.151 166.24C632.895 166.672 632.767 167.152 632.767 167.68V175H630.031ZM659.136 175.288C657.872 175.288 656.752 175.008 655.776 174.448C654.8 173.872 654.024 173.104 653.448 172.144C652.888 171.168 652.608 170.08 652.608 168.88C652.608 167.68 652.888 166.6 653.448 165.64C654.024 164.664 654.8 163.896 655.776 163.336C656.752 162.76 657.872 162.472 659.136 162.472C660.384 162.472 661.496 162.76 662.472 163.336C663.448 163.896 664.216 164.656 664.776 165.616C665.352 166.576 665.64 167.664 665.64 168.88C665.64 170.08 665.352 171.168 664.776 172.144C664.216 173.104 663.448 173.872 662.472 174.448C661.496 175.008 660.384 175.288 659.136 175.288ZM659.136 172.936C659.888 172.936 660.544 172.76 661.104 172.408C661.664 172.04 662.096 171.552 662.4 170.944C662.704 170.336 662.856 169.648 662.856 168.88C662.856 168.128 662.704 167.448 662.4 166.84C662.096 166.216 661.664 165.728 661.104 165.376C660.544 165.008 659.888 164.824 659.136 164.824C658.368 164.824 657.704 165.008 657.144 165.376C656.6 165.728 656.168 166.208 655.848 166.816C655.544 167.424 655.392 168.112 655.392 168.88C655.392 169.632 655.544 170.32 655.848 170.944C656.168 171.552 656.6 172.04 657.144 172.408C657.704 172.76 658.368 172.936 659.136 172.936ZM674.522 162.472C675.514 162.472 676.402 162.632 677.186 162.952C677.97 163.256 678.634 163.704 679.178 164.296C679.738 164.888 680.162 165.592 680.45 166.408C680.754 167.208 680.906 168.096 680.906 169.072C680.906 170.304 680.65 171.392 680.138 172.336C679.642 173.264 678.946 173.992 678.05 174.52C677.17 175.032 676.146 175.288 674.978 175.288C674.402 175.288 673.858 175.2 673.346 175.024C672.834 174.848 672.37 174.6 671.954 174.28C671.538 173.96 671.202 173.584 670.946 173.152H670.922V180.28H668.162V169.024C668.162 167.664 668.426 166.496 668.954 165.52C669.498 164.544 670.25 163.792 671.21 163.264C672.17 162.736 673.274 162.472 674.522 162.472ZM674.522 164.824C673.834 164.824 673.218 165 672.674 165.352C672.13 165.688 671.706 166.16 671.402 166.768C671.098 167.376 670.946 168.08 670.946 168.88C670.946 169.664 671.098 170.368 671.402 170.992C671.706 171.6 672.13 172.08 672.674 172.432C673.218 172.768 673.842 172.936 674.546 172.936C675.25 172.936 675.866 172.76 676.394 172.408C676.938 172.056 677.362 171.576 677.666 170.968C677.97 170.36 678.122 169.664 678.122 168.88C678.122 168.08 677.97 167.376 677.666 166.768C677.362 166.16 676.938 165.688 676.394 165.352C675.85 165 675.226 164.824 674.522 164.824ZM688.483 175.288C687.315 175.288 686.307 175 685.459 174.424C684.611 173.848 683.955 173.08 683.491 172.12C683.043 171.144 682.819 170.072 682.819 168.904C682.819 167.688 683.075 166.6 683.587 165.64C684.115 164.664 684.859 163.896 685.819 163.336C686.795 162.76 687.955 162.472 689.299 162.472C690.627 162.472 691.755 162.76 692.683 163.336C693.627 163.896 694.347 164.664 694.843 165.64C695.355 166.6 695.611 167.672 695.611 168.856V175H692.851V172.72H692.803C692.563 173.168 692.251 173.592 691.867 173.992C691.483 174.376 691.011 174.688 690.451 174.928C689.891 175.168 689.235 175.288 688.483 175.288ZM689.227 172.936C689.947 172.936 690.571 172.76 691.099 172.408C691.643 172.04 692.059 171.552 692.347 170.944C692.651 170.32 692.803 169.624 692.803 168.856C692.803 168.088 692.659 167.408 692.371 166.816C692.083 166.208 691.675 165.728 691.147 165.376C690.619 165.008 689.987 164.824 689.251 164.824C688.483 164.824 687.827 165.008 687.283 165.376C686.739 165.728 686.323 166.208 686.035 166.816C685.747 167.424 685.603 168.112 685.603 168.88C685.603 169.632 685.747 170.32 686.035 170.944C686.323 171.552 686.731 172.04 687.259 172.408C687.803 172.76 688.459 172.936 689.227 172.936ZM698.914 175V167.944C698.914 166.888 699.154 165.952 699.634 165.136C700.114 164.304 700.794 163.656 701.674 163.192C702.554 162.712 703.586 162.472 704.77 162.472C705.954 162.472 706.978 162.712 707.842 163.192C708.722 163.656 709.402 164.304 709.882 165.136C710.362 165.952 710.602 166.888 710.602 167.944V175H707.866V167.968C707.866 167.344 707.722 166.8 707.434 166.336C707.146 165.856 706.762 165.488 706.282 165.232C705.818 164.96 705.306 164.824 704.746 164.824C704.202 164.824 703.69 164.96 703.21 165.232C702.746 165.488 702.37 165.856 702.082 166.336C701.81 166.8 701.674 167.344 701.674 167.968V175H698.914Z" fill="#553F2E"/>
<path d="M512.08 108V105.48H517.36C517.936 105.48 518.44 105.344 518.872 105.072C519.32 104.8 519.664 104.44 519.904 103.992C520.16 103.544 520.288 103.064 520.288 102.552C520.288 102.024 520.16 101.544 519.904 101.112C519.664 100.68 519.328 100.336 518.896 100.08C518.464 99.824 517.968 99.696 517.408 99.696H512.56V91.2H522.04V93.72H515.296V97.224H517.768C518.792 97.224 519.704 97.472 520.504 97.968C521.32 98.448 521.96 99.096 522.424 99.912C522.904 100.728 523.144 101.616 523.144 102.576C523.144 103.552 522.904 104.456 522.424 105.288C521.944 106.104 521.296 106.76 520.48 107.256C519.664 107.752 518.744 108 517.72 108H512.08ZM532.089 108.288C530.905 108.288 529.841 108.032 528.897 107.52C527.953 107.008 527.209 106.304 526.665 105.408C526.121 104.512 525.849 103.512 525.849 102.408V96.792C525.849 95.688 526.121 94.696 526.665 93.816C527.209 92.92 527.953 92.216 528.897 91.704C529.841 91.176 530.905 90.912 532.089 90.912C533.257 90.912 534.305 91.176 535.233 91.704C536.177 92.216 536.921 92.92 537.465 93.816C538.009 94.696 538.281 95.688 538.281 96.792V102.408C538.281 103.512 538.009 104.512 537.465 105.408C536.921 106.288 536.177 106.992 535.233 107.52C534.305 108.032 533.257 108.288 532.089 108.288ZM532.089 105.768C532.697 105.768 533.249 105.632 533.745 105.36C534.257 105.072 534.657 104.688 534.945 104.208C535.249 103.728 535.401 103.2 535.401 102.624V96.576C535.401 95.984 535.249 95.456 534.945 94.992C534.641 94.528 534.241 94.152 533.745 93.864C533.249 93.576 532.697 93.432 532.089 93.432C531.481 93.432 530.913 93.576 530.385 93.864C529.873 94.136 529.465 94.512 529.161 94.992C528.857 95.472 528.705 96 528.705 96.576V102.624C528.705 103.2 528.857 103.728 529.161 104.208C529.465 104.688 529.873 105.072 530.385 105.36C530.897 105.632 531.465 105.768 532.089 105.768ZM540.631 108V105.48H543.919V93.72H540.847V91.2H546.823V105.48H549.751V108H540.631ZM550.632 103.032V100.536H557.424V103.032H550.632ZM558.678 108V105.48H561.966V93.72H558.894V91.2H564.87V105.48H567.798V108H558.678ZM572.381 108C571.773 108 571.237 107.872 570.773 107.616C570.325 107.344 569.973 106.992 569.717 106.56C569.477 106.128 569.357 105.64 569.357 105.096C569.357 104.6 569.485 104.112 569.741 103.632C570.013 103.136 570.365 102.728 570.797 102.408L576.101 98.616C576.549 98.296 576.885 97.928 577.109 97.512C577.333 97.08 577.445 96.64 577.445 96.192C577.445 95.696 577.333 95.272 577.109 94.92C576.885 94.552 576.565 94.264 576.149 94.056C575.733 93.832 575.221 93.72 574.613 93.72H570.221V91.2H574.949C576.053 91.2 577.005 91.424 577.805 91.872C578.605 92.32 579.221 92.92 579.653 93.672C580.085 94.424 580.301 95.264 580.301 96.192C580.301 97.12 580.101 97.952 579.701 98.688C579.317 99.424 578.701 100.088 577.853 100.68L572.525 104.328C572.445 104.392 572.365 104.48 572.285 104.592C572.221 104.688 572.189 104.792 572.189 104.904C572.189 105.08 572.245 105.224 572.357 105.336C572.469 105.432 572.637 105.48 572.861 105.48H580.757V108H572.381ZM583.029 108V105.48H588.717C589.181 105.48 589.589 105.376 589.941 105.168C590.293 104.944 590.565 104.648 590.757 104.28C590.965 103.912 591.069 103.52 591.069 103.104C591.069 102.672 590.965 102.28 590.757 101.928C590.565 101.56 590.285 101.264 589.917 101.04C589.549 100.816 589.125 100.704 588.645 100.704H583.869V98.16H588.789C589.253 98.16 589.653 98.064 589.989 97.872C590.325 97.664 590.589 97.392 590.781 97.056C590.973 96.72 591.069 96.352 591.069 95.952C591.069 95.552 590.973 95.184 590.781 94.848C590.589 94.512 590.325 94.24 589.989 94.032C589.653 93.824 589.253 93.72 588.789 93.72H583.029V91.2H589.149C590.061 91.2 590.877 91.416 591.597 91.848C592.317 92.28 592.885 92.856 593.301 93.576C593.717 94.28 593.925 95.072 593.925 95.952C593.925 96.672 593.749 97.344 593.397 97.968C593.061 98.576 592.597 99.088 592.005 99.504C592.421 99.76 592.773 100.08 593.061 100.464C593.349 100.848 593.565 101.264 593.709 101.712C593.853 102.16 593.925 102.624 593.925 103.104C593.925 103.984 593.717 104.8 593.301 105.552C592.885 106.288 592.309 106.88 591.573 107.328C590.837 107.776 590.005 108 589.077 108H583.029ZM596.218 103.032V100.536H603.01V103.032H596.218ZM613.289 108V104.304H608.153C607.561 104.304 607.025 104.168 606.545 103.896C606.081 103.608 605.705 103.24 605.417 102.792C605.145 102.328 605.009 101.832 605.009 101.304C605.009 101 605.049 100.696 605.129 100.392C605.209 100.088 605.313 99.808 605.441 99.552L609.953 91.2H613.193L608.033 100.56C607.985 100.672 607.945 100.768 607.913 100.848C607.897 100.928 607.889 101.024 607.889 101.136C607.889 101.312 607.937 101.464 608.033 101.592C608.145 101.704 608.305 101.76 608.513 101.76H613.289V95.904H616.145V101.76H618.377V104.304H616.145V108H613.289ZM620.502 108V105.48H625.782C626.358 105.48 626.862 105.344 627.294 105.072C627.742 104.8 628.086 104.44 628.326 103.992C628.582 103.544 628.71 103.064 628.71 102.552C628.71 102.024 628.582 101.544 628.326 101.112C628.086 100.68 627.75 100.336 627.318 100.08C626.886 99.824 626.39 99.696 625.83 99.696H620.982V91.2H630.462V93.72H623.718V97.224H626.19C627.214 97.224 628.126 97.472 628.926 97.968C629.742 98.448 630.382 99.096 630.846 99.912C631.326 100.728 631.566 101.616 631.566 102.576C631.566 103.552 631.326 104.456 630.846 105.288C630.366 106.104 629.718 106.76 628.902 107.256C628.086 107.752 627.166 108 626.142 108H620.502ZM640.247 108.288C638.967 108.288 637.847 108.048 636.887 107.568C635.943 107.072 635.207 106.4 634.679 105.552C634.151 104.704 633.887 103.736 633.887 102.648C633.887 101.592 634.087 100.584 634.487 99.624C634.903 98.648 635.455 97.64 636.143 96.6L639.743 91.2H643.103L638.903 97.584C639.175 97.408 639.471 97.28 639.791 97.2C640.127 97.12 640.463 97.08 640.799 97.08C641.967 97.08 642.983 97.328 643.847 97.824C644.711 98.32 645.383 98.992 645.863 99.84C646.343 100.672 646.583 101.608 646.583 102.648C646.583 103.72 646.319 104.688 645.791 105.552C645.263 106.4 644.527 107.072 643.583 107.568C642.639 108.048 641.527 108.288 640.247 108.288ZM640.247 105.768C640.951 105.768 641.559 105.64 642.071 105.384C642.599 105.112 642.999 104.744 643.271 104.28C643.559 103.8 643.703 103.256 643.703 102.648C643.703 102.088 643.575 101.576 643.319 101.112C643.063 100.632 642.679 100.248 642.167 99.96C641.655 99.672 641.015 99.528 640.247 99.528C639.543 99.528 638.927 99.664 638.399 99.936C637.887 100.208 637.479 100.584 637.175 101.064C636.887 101.528 636.743 102.056 636.743 102.648C636.743 103.256 636.887 103.8 637.175 104.28C637.463 104.744 637.863 105.112 638.375 105.384C638.903 105.64 639.527 105.768 640.247 105.768ZM649.51 108L656.494 94.8C656.606 94.576 656.662 94.376 656.662 94.2C656.662 94.072 656.614 93.96 656.518 93.864C656.422 93.768 656.278 93.72 656.086 93.72H648.334V91.2H656.47C657.062 91.2 657.582 91.328 658.03 91.584C658.494 91.84 658.862 92.184 659.134 92.616C659.406 93.048 659.542 93.528 659.542 94.056C659.542 94.344 659.502 94.64 659.422 94.944C659.342 95.232 659.246 95.504 659.134 95.76L652.774 108H649.51Z" fill="#553F2E"/>
<path d="M509.152 85.416V83.064H511.456C511.84 83.064 512.136 82.944 512.344 82.704C512.568 82.48 512.68 82.184 512.68 81.816V68.76H515.416V81.936C515.416 83.008 515.104 83.856 514.48 84.48C513.872 85.104 513.024 85.416 511.936 85.416H509.152ZM514 67.032C513.52 67.032 513.104 66.856 512.752 66.504C512.4 66.152 512.224 65.736 512.224 65.256C512.224 64.776 512.4 64.36 512.752 64.008C513.104 63.656 513.52 63.48 514 63.48C514.496 63.48 514.912 63.656 515.248 64.008C515.6 64.36 515.776 64.776 515.776 65.256C515.776 65.736 515.6 66.152 515.248 66.504C514.912 66.856 514.496 67.032 514 67.032ZM524.558 81.288C523.294 81.288 522.174 81.008 521.198 80.448C520.222 79.872 519.446 79.104 518.87 78.144C518.31 77.168 518.03 76.08 518.03 74.88C518.03 73.68 518.31 72.6 518.87 71.64C519.446 70.664 520.222 69.896 521.198 69.336C522.174 68.76 523.294 68.472 524.558 68.472C525.806 68.472 526.918 68.76 527.894 69.336C528.87 69.896 529.638 70.656 530.198 71.616C530.774 72.576 531.062 73.664 531.062 74.88C531.062 76.08 530.774 77.168 530.198 78.144C529.638 79.104 528.87 79.872 527.894 80.448C526.918 81.008 525.806 81.288 524.558 81.288ZM524.558 78.936C525.31 78.936 525.966 78.76 526.526 78.408C527.086 78.04 527.518 77.552 527.822 76.944C528.126 76.336 528.278 75.648 528.278 74.88C528.278 74.128 528.126 73.448 527.822 72.84C527.518 72.216 527.086 71.728 526.526 71.376C525.966 71.008 525.31 70.824 524.558 70.824C523.79 70.824 523.126 71.008 522.566 71.376C522.022 71.728 521.59 72.208 521.27 72.816C520.966 73.424 520.814 74.112 520.814 74.88C520.814 75.632 520.966 76.32 521.27 76.944C521.59 77.552 522.022 78.04 522.566 78.408C523.126 78.76 523.79 78.936 524.558 78.936ZM533.679 81V63.48H536.439V69.984C536.935 69.456 537.511 69.072 538.167 68.832C538.823 68.592 539.487 68.472 540.159 68.472C541.279 68.472 542.231 68.712 543.015 69.192C543.815 69.656 544.423 70.304 544.839 71.136C545.255 71.952 545.463 72.888 545.463 73.944V81H542.727V73.968C542.727 73.344 542.575 72.8 542.271 72.336C541.983 71.856 541.599 71.488 541.119 71.232C540.655 70.96 540.135 70.824 539.559 70.824C539.015 70.824 538.503 70.952 538.023 71.208C537.543 71.464 537.159 71.824 536.871 72.288C536.583 72.752 536.439 73.28 536.439 73.872V81H533.679ZM548.773 81V73.944C548.773 72.888 549.013 71.952 549.493 71.136C549.973 70.304 550.653 69.656 551.533 69.192C552.413 68.712 553.445 68.472 554.629 68.472C555.813 68.472 556.837 68.712 557.701 69.192C558.581 69.656 559.261 70.304 559.741 71.136C560.221 71.952 560.461 72.888 560.461 73.944V81H557.725V73.968C557.725 73.344 557.581 72.8 557.293 72.336C557.005 71.856 556.621 71.488 556.141 71.232C555.677 70.96 555.165 70.824 554.605 70.824C554.061 70.824 553.549 70.96 553.069 71.232C552.605 71.488 552.229 71.856 551.941 72.336C551.669 72.8 551.533 73.344 551.533 73.968V81H548.773ZM569.461 81.288C568.485 81.288 567.597 81.136 566.797 80.832C566.013 80.512 565.341 80.056 564.781 79.464C564.237 78.872 563.813 78.176 563.509 77.376C563.221 76.56 563.077 75.664 563.077 74.688C563.077 73.44 563.325 72.352 563.821 71.424C564.333 70.496 565.037 69.776 565.933 69.264C566.829 68.736 567.853 68.472 569.005 68.472C569.581 68.472 570.125 68.56 570.637 68.736C571.149 68.912 571.613 69.16 572.029 69.48C572.445 69.8 572.781 70.176 573.037 70.608H573.061V63.48H575.821V74.736C575.821 76.08 575.549 77.248 575.005 78.24C574.477 79.216 573.733 79.968 572.773 80.496C571.829 81.024 570.725 81.288 569.461 81.288ZM569.461 78.936C570.165 78.936 570.781 78.768 571.309 78.432C571.853 78.08 572.277 77.6 572.581 76.992C572.885 76.384 573.037 75.68 573.037 74.88C573.037 74.08 572.885 73.376 572.581 72.768C572.277 72.16 571.853 71.688 571.309 71.352C570.781 71 570.157 70.824 569.437 70.824C568.749 70.824 568.133 71 567.589 71.352C567.045 71.704 566.621 72.184 566.317 72.792C566.013 73.4 565.861 74.096 565.861 74.88C565.861 75.68 566.013 76.384 566.317 76.992C566.621 77.6 567.045 78.08 567.589 78.432C568.149 78.768 568.773 78.936 569.461 78.936ZM589.999 86.232C588.367 86.232 586.847 85.936 585.439 85.344C584.047 84.768 582.831 83.968 581.791 82.944C580.767 81.92 579.967 80.736 579.391 79.392C578.815 78.032 578.527 76.584 578.527 75.048C578.527 73.496 578.815 72.048 579.391 70.704C579.967 69.344 580.767 68.152 581.791 67.128C582.831 66.088 584.031 65.28 585.391 64.704C586.751 64.128 588.207 63.84 589.759 63.84C591.311 63.84 592.767 64.128 594.127 64.704C595.487 65.28 596.679 66.088 597.703 67.128C598.743 68.152 599.551 69.344 600.127 70.704C600.703 72.048 600.991 73.496 600.991 75.048C600.991 76.072 600.831 76.984 600.511 77.784C600.207 78.584 599.735 79.208 599.095 79.656C598.471 80.104 597.679 80.328 596.719 80.328C595.999 80.328 595.351 80.168 594.775 79.848C594.215 79.512 593.751 79.072 593.383 78.528C592.951 79.072 592.423 79.512 591.799 79.848C591.175 80.168 590.487 80.328 589.735 80.328C588.775 80.328 587.887 80.096 587.071 79.632C586.271 79.152 585.631 78.512 585.151 77.712C584.671 76.896 584.431 76.008 584.431 75.048C584.431 74.056 584.671 73.16 585.151 72.36C585.631 71.544 586.271 70.904 587.071 70.44C587.887 69.96 588.775 69.72 589.735 69.72C590.727 69.72 591.623 69.96 592.423 70.44C593.239 70.904 593.887 71.544 594.367 72.36C594.847 73.16 595.087 74.056 595.087 75.048V76.176C595.087 76.512 595.159 76.816 595.303 77.088C595.447 77.344 595.639 77.544 595.879 77.688C596.135 77.816 596.415 77.88 596.719 77.88C597.183 77.88 597.543 77.76 597.799 77.52C598.055 77.264 598.231 76.92 598.327 76.488C598.423 76.056 598.471 75.576 598.471 75.048C598.471 73.832 598.247 72.704 597.799 71.664C597.351 70.608 596.727 69.688 595.927 68.904C595.127 68.104 594.199 67.48 593.143 67.032C592.103 66.584 590.975 66.36 589.759 66.36C588.559 66.36 587.431 66.584 586.375 67.032C585.335 67.48 584.407 68.104 583.591 68.904C582.791 69.688 582.167 70.608 581.719 71.664C581.287 72.704 581.071 73.832 581.071 75.048C581.071 76.232 581.287 77.344 581.719 78.384C582.167 79.424 582.791 80.344 583.591 81.144C584.407 81.944 585.359 82.568 586.447 83.016C587.535 83.464 588.719 83.696 589.999 83.712H590.983V86.232H589.999ZM589.735 77.88C590.295 77.88 590.783 77.752 591.199 77.496C591.615 77.224 591.943 76.872 592.183 76.44C592.423 75.992 592.543 75.528 592.543 75.048C592.543 74.536 592.423 74.064 592.183 73.632C591.943 73.2 591.615 72.848 591.199 72.576C590.783 72.304 590.295 72.168 589.735 72.168C589.207 72.168 588.727 72.304 588.295 72.576C587.879 72.848 587.551 73.2 587.311 73.632C587.087 74.064 586.975 74.536 586.975 75.048C586.975 75.528 587.087 75.992 587.311 76.44C587.551 76.872 587.879 77.224 588.295 77.496C588.727 77.752 589.207 77.88 589.735 77.88ZM608.124 81.288C607.324 81.288 606.596 81.136 605.94 80.832C605.284 80.512 604.764 80.032 604.38 79.392C603.996 78.736 603.804 77.904 603.804 76.896V68.76H606.564V77.328C606.564 77.648 606.636 77.936 606.78 78.192C606.924 78.432 607.108 78.616 607.332 78.744C607.572 78.872 607.836 78.936 608.124 78.936C608.396 78.936 608.652 78.872 608.892 78.744C609.132 78.616 609.324 78.432 609.468 78.192C609.612 77.936 609.684 77.648 609.684 77.328V72.816C609.684 71.872 609.86 71.08 610.212 70.44C610.58 69.784 611.084 69.296 611.724 68.976C612.38 68.64 613.124 68.472 613.956 68.472C614.804 68.472 615.548 68.64 616.188 68.976C616.828 69.296 617.332 69.784 617.7 70.44C618.068 71.08 618.252 71.872 618.252 72.816V77.328C618.252 77.648 618.324 77.936 618.468 78.192C618.612 78.432 618.804 78.616 619.044 78.744C619.284 78.872 619.548 78.936 619.836 78.936C620.108 78.936 620.356 78.872 620.58 78.744C620.82 78.616 621.012 78.432 621.156 78.192C621.3 77.936 621.372 77.648 621.372 77.328V68.76H624.132V76.896C624.132 77.904 623.94 78.736 623.556 79.392C623.172 80.032 622.652 80.512 621.996 80.832C621.34 81.136 620.62 81.288 619.836 81.288C619.052 81.288 618.332 81.136 617.676 80.832C617.02 80.512 616.492 80.032 616.092 79.392C615.692 78.736 615.492 77.904 615.492 76.896V72.432C615.492 72.08 615.42 71.792 615.276 71.568C615.148 71.328 614.964 71.144 614.724 71.016C614.5 70.888 614.244 70.824 613.956 70.824C613.7 70.824 613.452 70.888 613.212 71.016C612.972 71.144 612.78 71.328 612.636 71.568C612.492 71.792 612.42 72.08 612.42 72.432V76.896C612.42 77.904 612.22 78.736 611.82 79.392C611.436 80.032 610.916 80.512 610.26 80.832C609.62 81.136 608.908 81.288 608.124 81.288ZM627.453 81V68.76H630.213V81H627.453ZM628.821 67.056C628.341 67.056 627.925 66.88 627.573 66.528C627.221 66.176 627.045 65.76 627.045 65.28C627.045 64.8 627.221 64.384 627.573 64.032C627.925 63.68 628.341 63.504 628.821 63.504C629.317 63.504 629.733 63.68 630.069 64.032C630.421 64.384 630.597 64.8 630.597 65.28C630.597 65.76 630.421 66.176 630.069 66.528C629.733 66.88 629.317 67.056 628.821 67.056ZM634.291 81V71.112H632.155V68.76H634.291V66.96C634.291 65.872 634.595 65.024 635.203 64.416C635.827 63.792 636.683 63.48 637.771 63.48H641.035V65.832H638.275C637.907 65.832 637.611 65.944 637.387 66.168C637.163 66.392 637.051 66.696 637.051 67.08V68.76H640.531V71.112H637.051V81H634.291ZM646.965 85.872V81.168C646.037 80.992 645.237 80.664 644.565 80.184C643.893 79.688 643.373 79.064 643.005 78.312C642.637 77.56 642.453 76.728 642.453 75.816V68.76H645.213V75.792C645.213 76.416 645.349 76.968 645.621 77.448C645.909 77.912 646.285 78.28 646.749 78.552C647.229 78.808 647.749 78.936 648.309 78.936C648.869 78.936 649.381 78.808 649.845 78.552C650.325 78.28 650.701 77.912 650.973 77.448C651.261 76.968 651.405 76.416 651.405 75.792V68.76H654.165V75.816C654.165 76.728 653.981 77.552 653.613 78.288C653.245 79.024 652.725 79.648 652.053 80.16C651.397 80.656 650.613 80.984 649.701 81.144V85.872H646.965ZM658.676 81.264C658.148 81.264 657.692 81.08 657.308 80.712C656.94 80.328 656.756 79.872 656.756 79.344C656.756 78.832 656.94 78.392 657.308 78.024C657.692 77.64 658.148 77.448 658.676 77.448C659.188 77.448 659.628 77.64 659.996 78.024C660.38 78.392 660.572 78.832 660.572 79.344C660.572 79.696 660.484 80.024 660.308 80.328C660.148 80.616 659.924 80.84 659.636 81C659.348 81.176 659.028 81.264 658.676 81.264ZM663.172 81V73.68C663.172 72.736 663.396 71.872 663.844 71.088C664.292 70.288 664.94 69.656 665.788 69.192C666.636 68.712 667.652 68.472 668.836 68.472C669.412 68.472 669.964 68.544 670.492 68.688C671.02 68.832 671.508 69.064 671.956 69.384C672.42 69.688 672.812 70.072 673.132 70.536H673.156C673.476 70.072 673.86 69.688 674.308 69.384C674.772 69.064 675.268 68.832 675.796 68.688C676.34 68.544 676.9 68.472 677.476 68.472C678.676 68.472 679.692 68.712 680.524 69.192C681.372 69.656 682.02 70.288 682.468 71.088C682.916 71.872 683.14 72.736 683.14 73.68V81H680.404V73.68C680.404 73.152 680.268 72.672 679.996 72.24C679.74 71.808 679.396 71.464 678.964 71.208C678.532 70.952 678.036 70.824 677.476 70.824C676.932 70.824 676.436 70.952 675.988 71.208C675.54 71.464 675.18 71.808 674.908 72.24C674.652 72.672 674.524 73.152 674.524 73.68V81H671.788V73.68C671.788 73.152 671.652 72.672 671.38 72.24C671.108 71.808 670.748 71.464 670.3 71.208C669.868 70.952 669.38 70.824 668.836 70.824C668.292 70.824 667.796 70.952 667.348 71.208C666.916 71.464 666.564 71.808 666.292 72.24C666.036 72.672 665.908 73.152 665.908 73.68V81H663.172ZM692.637 81C691.261 81 690.053 80.744 689.013 80.232C687.989 79.704 687.189 78.984 686.613 78.072C686.037 77.144 685.749 76.08 685.749 74.88C685.749 73.616 686.005 72.504 686.517 71.544C687.029 70.584 687.733 69.832 688.629 69.288C689.525 68.744 690.557 68.472 691.725 68.472C693.037 68.472 694.117 68.752 694.965 69.312C695.813 69.872 696.437 70.624 696.837 71.568C697.253 72.512 697.461 73.568 697.461 74.736C697.461 74.896 697.453 75.08 697.437 75.288C697.421 75.496 697.397 75.656 697.365 75.768H688.677C688.773 76.408 689.005 76.944 689.373 77.376C689.741 77.792 690.205 78.112 690.765 78.336C691.325 78.544 691.949 78.648 692.637 78.648H695.925V81H692.637ZM688.653 73.896H694.701C694.685 73.592 694.637 73.288 694.557 72.984C694.493 72.68 694.381 72.392 694.221 72.12C694.077 71.848 693.885 71.616 693.645 71.424C693.421 71.216 693.149 71.056 692.829 70.944C692.509 70.816 692.141 70.752 691.725 70.752C691.245 70.752 690.821 70.848 690.453 71.04C690.085 71.216 689.773 71.456 689.517 71.76C689.261 72.048 689.061 72.384 688.917 72.768C688.789 73.136 688.701 73.512 688.653 73.896Z" fill="#553F2E"/>
<a href="mailto:johnd@wify.me">
<rect fill="black" fill-opacity="0" y="-0.0799999" width="187.373" height="38.16"/>
</a>
<path d="M525.204 57.308C524.159 57.308 523.207 57.0747 522.348 56.608C521.508 56.1227 520.845 55.46 520.36 54.62C519.893 53.7613 519.66 52.7813 519.66 51.68V42.3C519.66 41.8707 519.557 41.488 519.352 41.152C519.147 40.7973 518.867 40.5173 518.512 40.312C518.176 40.1067 517.803 40.004 517.392 40.004C516.981 40.004 516.608 40.1067 516.272 40.312C515.936 40.5173 515.665 40.7973 515.46 41.152C515.255 41.488 515.152 41.8707 515.152 42.3V57H511.82V42.72C511.82 41.656 512.053 40.704 512.52 39.864C512.987 39.0053 513.64 38.324 514.48 37.82C515.32 37.316 516.291 37.064 517.392 37.064C518.512 37.064 519.492 37.316 520.332 37.82C521.172 38.324 521.825 39.0053 522.292 39.864C522.759 40.704 522.992 41.656 522.992 42.72V52.1C522.992 52.5107 523.095 52.8933 523.3 53.248C523.505 53.584 523.776 53.8547 524.112 54.06C524.448 54.2653 524.812 54.368 525.204 54.368C525.615 54.368 525.988 54.2653 526.324 54.06C526.66 53.8547 526.931 53.584 527.136 53.248C527.341 52.8933 527.444 52.5107 527.444 52.1V42.72C527.444 41.656 527.677 40.704 528.144 39.864C528.611 39.0053 529.264 38.324 530.104 37.82C530.963 37.316 531.943 37.064 533.044 37.064C534.164 37.064 535.135 37.316 535.956 37.82C536.796 38.324 537.449 39.0053 537.916 39.864C538.383 40.704 538.616 41.656 538.616 42.72V57H535.256V42.3C535.256 41.8707 535.153 41.488 534.948 41.152C534.761 40.7973 534.5 40.5173 534.164 40.312C533.828 40.1067 533.455 40.004 533.044 40.004C532.633 40.004 532.251 40.1067 531.896 40.312C531.56 40.5173 531.289 40.7973 531.084 41.152C530.879 41.488 530.776 41.8707 530.776 42.3V51.68C530.776 52.7813 530.533 53.7613 530.048 54.62C529.563 55.46 528.9 56.1227 528.06 56.608C527.239 57.0747 526.287 57.308 525.204 57.308ZM548.162 57.336C546.799 57.336 545.623 57 544.634 56.328C543.644 55.656 542.879 54.76 542.338 53.64C541.815 52.5013 541.554 51.2507 541.554 49.888C541.554 48.4693 541.852 47.2 542.45 46.08C543.066 44.9413 543.934 44.0453 545.054 43.392C546.192 42.72 547.546 42.384 549.114 42.384C550.663 42.384 551.979 42.72 553.062 43.392C554.163 44.0453 555.003 44.9413 555.582 46.08C556.179 47.2 556.478 48.4507 556.478 49.832V57H553.258V54.34H553.202C552.922 54.8627 552.558 55.3573 552.11 55.824C551.662 56.272 551.111 56.636 550.458 56.916C549.804 57.196 549.039 57.336 548.162 57.336ZM549.03 54.592C549.87 54.592 550.598 54.3867 551.214 53.976C551.848 53.5467 552.334 52.9773 552.67 52.268C553.024 51.54 553.202 50.728 553.202 49.832C553.202 48.936 553.034 48.1427 552.698 47.452C552.362 46.7427 551.886 46.1827 551.27 45.772C550.654 45.3427 549.916 45.128 549.058 45.128C548.162 45.128 547.396 45.3427 546.762 45.772C546.127 46.1827 545.642 46.7427 545.306 47.452C544.97 48.1613 544.802 48.964 544.802 49.86C544.802 50.7373 544.97 51.54 545.306 52.268C545.642 52.9773 546.118 53.5467 546.734 53.976C547.368 54.3867 548.134 54.592 549.03 54.592ZM560.33 57V48.768C560.33 47.536 560.61 46.444 561.17 45.492C561.73 44.5213 562.524 43.7653 563.55 43.224C564.577 42.664 565.781 42.384 567.162 42.384C568.544 42.384 569.738 42.664 570.746 43.224C571.773 43.7653 572.566 44.5213 573.126 45.492C573.686 46.444 573.966 47.536 573.966 48.768V57H570.774V48.796C570.774 48.068 570.606 47.4333 570.27 46.892C569.934 46.332 569.486 45.9027 568.926 45.604C568.385 45.2867 567.788 45.128 567.134 45.128C566.5 45.128 565.902 45.2867 565.342 45.604C564.801 45.9027 564.362 46.332 564.026 46.892C563.709 47.4333 563.55 48.068 563.55 48.796V57H560.33ZM583.626 57.336C582.264 57.336 581.088 57 580.098 56.328C579.109 55.656 578.344 54.76 577.802 53.64C577.28 52.5013 577.018 51.2507 577.018 49.888C577.018 48.4693 577.317 47.2 577.914 46.08C578.53 44.9413 579.398 44.0453 580.518 43.392C581.657 42.72 583.01 42.384 584.578 42.384C586.128 42.384 587.444 42.72 588.526 43.392C589.628 44.0453 590.468 44.9413 591.046 46.08C591.644 47.2 591.942 48.4507 591.942 49.832V57H588.722V54.34H588.666C588.386 54.8627 588.022 55.3573 587.574 55.824C587.126 56.272 586.576 56.636 585.922 56.916C585.269 57.196 584.504 57.336 583.626 57.336ZM584.494 54.592C585.334 54.592 586.062 54.3867 586.678 53.976C587.313 53.5467 587.798 52.9773 588.134 52.268C588.489 51.54 588.666 50.728 588.666 49.832C588.666 48.936 588.498 48.1427 588.162 47.452C587.826 46.7427 587.35 46.1827 586.734 45.772C586.118 45.3427 585.381 45.128 584.522 45.128C583.626 45.128 582.861 45.3427 582.226 45.772C581.592 46.1827 581.106 46.7427 580.77 47.452C580.434 48.1613 580.266 48.964 580.266 49.86C580.266 50.7373 580.434 51.54 580.77 52.268C581.106 52.9773 581.582 53.5467 582.198 53.976C582.833 54.3867 583.598 54.592 584.494 54.592ZM597.951 62.684V59.94H605.119C605.605 59.94 605.978 59.7907 606.239 59.492C606.519 59.1933 606.659 58.82 606.659 58.372V54.676H606.631C606.221 55.18 605.782 55.6187 605.315 55.992C604.849 56.3467 604.317 56.6267 603.719 56.832C603.141 57.0187 602.497 57.112 601.787 57.112C600.481 57.112 599.314 56.804 598.287 56.188C597.261 55.572 596.449 54.7133 595.851 53.612C595.273 52.492 594.983 51.2133 594.983 49.776C594.983 48.376 595.273 47.1253 595.851 46.024C596.449 44.904 597.298 44.0173 598.399 43.364C599.501 42.7107 600.845 42.384 602.431 42.384C603.943 42.384 605.25 42.7013 606.351 43.336C607.471 43.9707 608.339 44.8667 608.955 46.024C609.571 47.1627 609.879 48.4973 609.879 50.028V58.512C609.879 59.8 609.506 60.8173 608.759 61.564C608.013 62.3107 606.995 62.684 605.707 62.684H597.951ZM602.403 54.368C603.262 54.368 603.999 54.172 604.615 53.78C605.25 53.3693 605.735 52.828 606.071 52.156C606.426 51.4653 606.603 50.7 606.603 49.86C606.603 48.964 606.435 48.1613 606.099 47.452C605.763 46.7427 605.278 46.1827 604.643 45.772C604.027 45.3427 603.281 45.128 602.403 45.128C601.545 45.128 600.798 45.3427 600.163 45.772C599.547 46.1827 599.071 46.7427 598.735 47.452C598.399 48.1427 598.231 48.9267 598.231 49.804C598.231 50.644 598.399 51.4093 598.735 52.1C599.071 52.7907 599.547 53.3413 600.163 53.752C600.798 54.1627 601.545 54.368 602.403 54.368ZM620.847 57C619.242 57 617.833 56.7013 616.619 56.104C615.425 55.488 614.491 54.648 613.819 53.584C613.147 52.5013 612.811 51.26 612.811 49.86C612.811 48.3853 613.11 47.088 613.707 45.968C614.305 44.848 615.126 43.9707 616.171 43.336C617.217 42.7013 618.421 42.384 619.783 42.384C621.314 42.384 622.574 42.7107 623.563 43.364C624.553 44.0173 625.281 44.8947 625.747 45.996C626.233 47.0973 626.475 48.3293 626.475 49.692C626.475 49.8787 626.466 50.0933 626.447 50.336C626.429 50.5787 626.401 50.7653 626.363 50.896H616.227C616.339 51.6427 616.61 52.268 617.039 52.772C617.469 53.2573 618.01 53.6307 618.663 53.892C619.317 54.1347 620.045 54.256 620.847 54.256H624.683V57H620.847ZM616.199 48.712H623.255C623.237 48.3573 623.181 48.0027 623.087 47.648C623.013 47.2933 622.882 46.9573 622.695 46.64C622.527 46.3227 622.303 46.052 622.023 45.828C621.762 45.5853 621.445 45.3987 621.071 45.268C620.698 45.1187 620.269 45.044 619.783 45.044C619.223 45.044 618.729 45.156 618.299 45.38C617.87 45.5853 617.506 45.8653 617.207 46.22C616.909 46.556 616.675 46.948 616.507 47.396C616.358 47.8253 616.255 48.264 616.199 48.712ZM629.371 57V46.78C629.371 45.5107 629.725 44.5213 630.435 43.812C631.163 43.084 632.161 42.72 633.431 42.72H636.875V45.464H634.019C633.571 45.464 633.216 45.5947 632.955 45.856C632.712 46.1173 632.591 46.472 632.591 46.92V57H629.371Z" fill="#B3CC1F"/>
<path d="M203.056 1035.59C177.521 1171.06 46.8292 1260.14 -88.8526 1234.57C-91.0157 1246.04 -69.0536 1129.53 -43.5184 994.064C-17.9832 858.598 1.72582 754.041 3.61849 744C139.3 769.576 228.592 900.126 203.056 1035.59Z" fill="#553F2E"/>
<path d="M203.056 1035.59C177.521 1171.06 46.8292 1260.14 -88.8526 1234.57C-91.0157 1246.04 -69.0536 1129.53 -43.5184 994.064C-17.9832 858.598 1.72582 754.041 3.61849 744C139.3 769.576 228.592 900.126 203.056 1035.59Z" fill="#553F2E"/>
<path d="M134.339 1022.25C116.311 1117.89 22.5025 1180.49 -75.1883 1162.08C-76.7155 1170.18 -61.2102 1087.92 -43.1824 992.282C-25.1545 896.643 -11.24 822.826 -9.90374 815.737C87.7871 834.151 152.367 926.61 134.339 1022.25Z" fill="#F7ECDF"/>
<path d="M492.401 977.096C601.809 1060.96 622.411 1217.78 538.415 1327.36C547.683 1334.46 453.584 1262.34 344.175 1178.47C234.767 1094.61 150.321 1029.88 142.212 1023.67C226.207 914.085 382.992 893.234 492.401 977.096Z" fill="#553F2E"/>
<path d="M492.401 977.096C601.809 1060.96 622.411 1217.78 538.415 1327.36C547.683 1334.46 453.584 1262.34 344.175 1178.47C234.767 1094.61 150.321 1029.88 142.212 1023.67C226.207 914.085 382.992 893.234 492.401 977.096Z" fill="#553F2E"/>
<path d="M449.513 1032.42C526.755 1091.63 540.347 1203.58 479.87 1282.48C486.413 1287.5 419.979 1236.58 342.736 1177.37C265.494 1118.16 205.875 1072.47 200.15 1068.08C260.627 989.178 372.27 973.214 449.513 1032.42Z" fill="#F7ECDF"/>
</g>
<defs>
<clipPath id="clip0_8_175">
<rect width="816" height="1056" fill="white"/>
</clipPath>
</defs>
</svg>
